<svg width="970" height="250" viewBox="0 0 970 250" fill="none" xmlns="http://www.w3.org/2000/svg"><path d="M64.502 143.432a8.55 8.55 0 01-1.652-.14 7.04 7.04 0 01-1.036-.28v-2.66h1.904c.635 0 1.167-.103 1.596-.308.43-.205.784-.485 1.064-.84.299-.355.541-.756.728-1.204l-6.496-14.756h4.452l2.772 6.916c.15.317.308.719.476 1.204.168.467.336.952.504 1.456.187.485.336.924.448 1.316h.196c.056-.168.13-.411.224-.728.093-.317.205-.672.336-1.064l.392-1.176c.15-.392.28-.737.392-1.036l2.408-6.888h4.284l-5.572 13.72c-.392.952-.803 1.82-1.232 2.604a8.765 8.765 0 01-1.456 2.044 5.503 5.503 0 01-1.988 1.344c-.765.317-1.68.476-2.744.476zm22.635-5.096c-1.773 0-3.285-.28-4.536-.84-1.25-.579-2.212-1.437-2.884-2.576-.653-1.139-.98-2.576-.98-4.312 0-1.736.327-3.173.98-4.312.672-1.139 1.633-1.988 2.884-2.548 1.25-.56 2.763-.84 4.536-.84 1.773 0 3.285.28 4.536.84 1.27.56 2.23 1.409 2.884 2.548.672 1.139 1.008 2.576 1.008 4.312 0 1.736-.336 3.173-1.008 4.312-.653 1.139-1.615 1.997-2.884 2.576-1.25.56-2.763.84-4.536.84zm0-3.108c.933 0 1.708-.168 2.324-.504a3.142 3.142 0 001.372-1.456c.317-.635.476-1.419.476-2.352v-.588c0-.933-.159-1.717-.476-2.352a2.978 2.978 0 00-1.372-1.456c-.616-.336-1.39-.504-2.324-.504-.933 0-1.708.168-2.324.504a2.978 2.978 0 00-1.372 1.456c-.299.635-.448 1.419-.448 2.352v.588c0 .933.15 1.717.448 2.352.299.635.756 1.12 1.372 1.456.616.336 1.39.504 2.324.504zm16.956 3.108c-1.792 0-3.174-.448-4.145-1.344-.97-.915-1.455-2.343-1.455-4.284v-9.464h4.144v8.792c0 .523.065.971.196 1.344.13.373.326.681.588.924.261.224.578.392.952.504.373.112.793.168 1.26.168.69 0 1.316-.149 1.876-.448a3.447 3.447 0 001.372-1.26 3.38 3.38 0 00.504-1.82v-8.204h4.144V138h-3.36l-.308-2.268h-.224a5.835 5.835 0 01-1.54 1.484 6.755 6.755 0 01-1.904.84 7.797 7.797 0 01-2.1.28zm20.269-.336v-14.756h3.388l.308 2.268h.224a5.968 5.968 0 011.54-1.456 6.358 6.358 0 011.876-.868c.69-.187 1.4-.28 2.128-.28 1.194 0 2.202.205 3.024.616a3.98 3.98 0 011.904 1.848c.448.821.672 1.876.672 3.164V138h-4.144v-8.792c0-.523-.075-.971-.224-1.344a2.043 2.043 0 00-.588-.896 2.383 2.383 0 00-.952-.532 4.387 4.387 0 00-1.26-.168 3.74 3.74 0 00-1.876.476 3.782 3.782 0 00-1.372 1.232c-.336.523-.504 1.139-.504 1.848V138h-4.144zm23.463.336c-.69 0-1.372-.065-2.044-.196a5.66 5.66 0 01-1.792-.616 3.567 3.567 0 01-1.26-1.316c-.317-.56-.476-1.269-.476-2.128 0-1.101.271-1.988.812-2.66.56-.672 1.344-1.176 2.352-1.512 1.008-.355 2.194-.588 3.556-.7a56.81 56.81 0 014.564-.168v-.84c0-.504-.112-.924-.336-1.26-.224-.355-.578-.616-1.064-.784-.466-.168-1.092-.252-1.876-.252-.69 0-1.278.065-1.764.196-.485.131-.858.308-1.12.532a.956.956 0 00-.392.784v.308h-4.088l-.056-.224v-.28c0-.877.29-1.633.868-2.268.598-.653 1.456-1.157 2.576-1.512 1.139-.355 2.511-.532 4.116-.532 1.568 0 2.884.168 3.948.504 1.083.336 1.904.859 2.464 1.568.56.709.84 1.633.84 2.772v6.44c0 .336.084.597.252.784.168.168.402.252.7.252h1.204v2.632a13.47 13.47 0 01-1.036.28 5.495 5.495 0 01-1.54.196c-.709 0-1.297-.093-1.764-.28-.448-.168-.802-.411-1.064-.728-.242-.336-.42-.7-.532-1.092h-.196a7.912 7.912 0 01-1.512 1.12 7.622 7.622 0 01-1.96.728c-.728.168-1.521.252-2.38.252zm1.232-3.024c.523 0 1.046-.065 1.568-.196a6.498 6.498 0 001.428-.588 3.3 3.3 0 001.064-.952c.28-.373.42-.793.42-1.26v-.812c-1.53 0-2.828.075-3.892.224-1.045.131-1.848.364-2.408.7-.541.336-.812.793-.812 1.372 0 .373.112.672.336.896.243.205.56.364.952.476.411.093.859.14 1.344.14zM161.713 138v-14.756h3.388l.308 2.268h.224a5.406 5.406 0 011.456-1.456 6.064 6.064 0 011.82-.868 7.194 7.194 0 011.988-.28c1.158 0 2.138.215 2.94.644.803.411 1.4 1.064 1.792 1.96h.224a5.785 5.785 0 011.484-1.456 6.003 6.003 0 011.848-.868 7.593 7.593 0 012.044-.28c1.12 0 2.072.196 2.856.588.803.392 1.41.999 1.82 1.82.43.821.644 1.876.644 3.164V138h-4.116v-8.82c0-.523-.065-.971-.196-1.344a2.157 2.157 0 00-.56-.896 2.092 2.092 0 00-.868-.504 3.526 3.526 0 00-1.12-.168c-.634 0-1.213.159-1.736.476a3.475 3.475 0 00-1.26 1.232c-.317.523-.476 1.139-.476 1.848V138h-4.144v-8.82c0-.523-.065-.971-.196-1.344-.112-.373-.289-.672-.532-.896a2.357 2.357 0 00-.868-.504 3.62 3.62 0 00-1.148-.168c-.634 0-1.222.159-1.764.476a3.475 3.475 0 00-1.26 1.232c-.298.523-.448 1.139-.448 1.848V138h-4.144zm36.25.336c-1.792 0-3.323-.271-4.592-.812-1.251-.56-2.212-1.409-2.884-2.548-.654-1.139-.98-2.585-.98-4.34s.326-3.201.98-4.34c.653-1.139 1.605-1.988 2.856-2.548 1.25-.56 2.744-.84 4.48-.84 1.754 0 3.229.28 4.424.84 1.213.541 2.128 1.372 2.744 2.492.616 1.101.924 2.492.924 4.172v1.148h-12.152c.056.859.242 1.568.56 2.128.317.56.784.98 1.4 1.26.616.261 1.381.392 2.296.392.429 0 .858-.047 1.288-.14.448-.112.84-.271 1.176-.476a2.71 2.71 0 00.868-.784c.224-.317.345-.691.364-1.12h4.144c0 .859-.187 1.633-.56 2.324-.374.672-.906 1.251-1.596 1.736-.691.467-1.522.831-2.492 1.092-.971.243-2.054.364-3.248.364zm-4.172-9.324h7.784c0-.541-.094-.999-.28-1.372a2.456 2.456 0 00-.784-.952 2.882 2.882 0 00-1.148-.56 4.99 4.99 0 00-1.456-.196c-.803 0-1.503.112-2.1.336a2.957 2.957 0 00-1.372 1.036c-.336.467-.551 1.036-.644 1.708zm22.282-7.98v-3.304h4.144v3.304h-4.144zm0 16.968v-14.756h4.144V138h-4.144zm13.363.336c-1.045 0-1.894-.159-2.548-.476a3.121 3.121 0 01-1.456-1.4c-.298-.635-.448-1.437-.448-2.408v-7.7h-2.352v-3.108h2.464l.812-4.256h3.192v4.256h3.36v3.108h-3.36v7.112c0 .579.122 1.017.364 1.316.243.299.7.448 1.372.448h1.624v2.632a3.9 3.9 0 01-.896.224 9.897 9.897 0 01-1.12.168 6.854 6.854 0 01-1.008.084zm6.111-.336v-4.34h4.648V138h-4.648zm19.412 0l-5.404-14.756h4.396l2.212 7.14a25.025 25.025 0 01.644 2.324c.093.317.158.569.196.756h.196l.252-.952.28-1.12c.112-.373.214-.709.308-1.008l2.044-7.14h4.48l2.072 7.14c.074.205.158.495.252.868.093.373.186.756.28 1.148.112.392.205.747.28 1.064h.196c.074-.28.158-.607.252-.98.093-.373.196-.737.308-1.092.112-.373.205-.7.28-.98l2.212-7.168h4.06L269.379 138h-4.172l-1.96-6.664-.364-1.204a63.213 63.213 0 00-.336-1.288c-.112-.411-.206-.756-.28-1.036h-.168c-.056.205-.14.504-.252.896a53.48 53.48 0 01-.336 1.26c-.112.448-.234.915-.364 1.4l-1.96 6.636h-4.228zm29.492.336c-1.792 0-3.323-.271-4.592-.812-1.251-.56-2.212-1.409-2.884-2.548-.653-1.139-.98-2.585-.98-4.34s.327-3.201.98-4.34c.653-1.139 1.605-1.988 2.856-2.548s2.744-.84 4.48-.84c1.755 0 3.229.28 4.424.84 1.213.541 2.128 1.372 2.744 2.492.616 1.101.924 2.492.924 4.172v1.148h-12.152c.056.859.243 1.568.56 2.128.317.56.784.98 1.4 1.26.616.261 1.381.392 2.296.392.429 0 .859-.047 1.288-.14.448-.112.84-.271 1.176-.476a2.7 2.7 0 00.868-.784c.224-.317.345-.691.364-1.12h4.144c0 .859-.187 1.633-.56 2.324-.373.672-.905 1.251-1.596 1.736-.691.467-1.521.831-2.492 1.092-.971.243-2.053.364-3.248.364zm-4.172-9.324h7.784c0-.541-.093-.999-.28-1.372a2.456 2.456 0 00-.784-.952 2.875 2.875 0 00-1.148-.56 4.986 4.986 0 00-1.456-.196c-.803 0-1.503.112-2.1.336a2.957 2.957 0 00-1.372 1.036c-.336.467-.551 1.036-.644 1.708zm31.382 9.324c-1.064 0-2.044-.196-2.94-.588-.896-.392-1.643-1.027-2.24-1.904h-.196l-.336 2.156h-3.388v-20.272h4.144v7.252h.196a4.461 4.461 0 011.288-1.148 5.608 5.608 0 011.68-.7 8.312 8.312 0 011.96-.224c1.307 0 2.455.28 3.444.84.989.541 1.764 1.381 2.324 2.52.56 1.139.84 2.585.84 4.34s-.28 3.211-.84 4.368c-.56 1.139-1.353 1.988-2.38 2.548-1.008.541-2.193.812-3.556.812zm-1.204-3.332c.859 0 1.559-.159 2.1-.476.56-.317.971-.775 1.232-1.372.28-.616.42-1.363.42-2.24v-.56c0-.877-.14-1.615-.42-2.212a2.826 2.826 0 00-1.232-1.4c-.541-.317-1.232-.476-2.072-.476-.635 0-1.185.093-1.652.28a3.2 3.2 0 00-1.204.84c-.317.355-.56.793-.728 1.316a6.436 6.436 0 00-.224 1.764v.364c0 .859.14 1.605.42 2.24.28.616.7 1.092 1.26 1.428.579.336 1.279.504 2.1.504zM321.483 138v-14.756h3.388l.308 2.436h.224c.205-.523.485-.989.84-1.4a3.704 3.704 0 011.316-1.008c.522-.243 1.11-.364 1.764-.364.336 0 .644.028.924.084.298.056.55.121.756.196v3.612h-1.652c-.654 0-1.214.103-1.68.308-.467.187-.85.467-1.148.84a3.519 3.519 0 00-.672 1.288 5.382 5.382 0 00-.224 1.596V138h-4.144zm16.135.336c-.69 0-1.372-.065-2.044-.196a5.66 5.66 0 01-1.792-.616 3.567 3.567 0 01-1.26-1.316c-.317-.56-.476-1.269-.476-2.128 0-1.101.271-1.988.812-2.66.56-.672 1.344-1.176 2.352-1.512 1.008-.355 2.194-.588 3.556-.7a56.81 56.81 0 014.564-.168v-.84c0-.504-.112-.924-.336-1.26-.224-.355-.578-.616-1.064-.784-.466-.168-1.092-.252-1.876-.252-.69 0-1.278.065-1.764.196-.485.131-.858.308-1.12.532a.956.956 0 00-.392.784v.308h-4.088l-.056-.224v-.28c0-.877.29-1.633.868-2.268.598-.653 1.456-1.157 2.576-1.512 1.139-.355 2.511-.532 4.116-.532 1.568 0 2.884.168 3.948.504 1.083.336 1.904.859 2.464 1.568.56.709.84 1.633.84 2.772v6.44c0 .336.084.597.252.784.168.168.402.252.7.252h1.204v2.632a13.47 13.47 0 01-1.036.28 5.495 5.495 0 01-1.54.196c-.709 0-1.297-.093-1.764-.28-.448-.168-.802-.411-1.064-.728-.242-.336-.42-.7-.532-1.092h-.196a7.912 7.912 0 01-1.512 1.12 7.622 7.622 0 01-1.96.728c-.728.168-1.521.252-2.38.252zm1.232-3.024c.523 0 1.046-.065 1.568-.196a6.498 6.498 0 001.428-.588 3.3 3.3 0 001.064-.952c.28-.373.42-.793.42-1.26v-.812c-1.53 0-2.828.075-3.892.224-1.045.131-1.848.364-2.408.7-.541.336-.812.793-.812 1.372 0 .373.112.672.336.896.243.205.56.364.952.476.411.093.859.14 1.344.14zM351.506 138v-14.756h3.388l.308 2.268h.224a5.984 5.984 0 011.54-1.456 6.37 6.37 0 011.876-.868c.691-.187 1.4-.28 2.128-.28 1.195 0 2.203.205 3.024.616a3.975 3.975 0 011.904 1.848c.448.821.672 1.876.672 3.164V138h-4.144v-8.792c0-.523-.074-.971-.224-1.344a2.026 2.026 0 00-.588-.896 2.37 2.37 0 00-.952-.532 4.377 4.377 0 00-1.26-.168c-.69 0-1.316.159-1.876.476a3.79 3.79 0 00-1.372 1.232c-.336.523-.504 1.139-.504 1.848V138h-4.144zm24.808.336c-1.363 0-2.557-.271-3.584-.812-1.008-.56-1.792-1.409-2.352-2.548-.56-1.157-.84-2.613-.84-4.368 0-1.755.28-3.201.84-4.34.56-1.139 1.335-1.979 2.324-2.52.989-.56 2.137-.84 3.444-.84.691 0 1.344.075 1.96.224a5.608 5.608 0 011.68.7c.504.299.933.681 1.288 1.148h.196v-7.252h4.116V138h-3.36l-.336-2.156h-.196c-.597.877-1.344 1.512-2.24 1.904-.896.392-1.876.588-2.94.588zm1.204-3.332c.84 0 1.531-.168 2.072-.504.56-.336.98-.812 1.26-1.428.28-.635.42-1.381.42-2.24v-.364c0-.653-.084-1.241-.252-1.764a3.298 3.298 0 00-.7-1.316 2.963 2.963 0 00-1.176-.84c-.467-.187-1.017-.28-1.652-.28-.84 0-1.54.159-2.1.476-.56.317-.98.784-1.26 1.4-.261.597-.392 1.335-.392 2.212v.56c0 .877.14 1.624.42 2.24.28.597.691 1.055 1.232 1.372.56.317 1.269.476 2.128.476zm18.723-13.972v-3.304h4.144v3.304h-4.144zm0 16.968v-14.756h4.144V138h-4.144zm13.363.336c-1.045 0-1.894-.159-2.548-.476a3.121 3.121 0 01-1.456-1.4c-.298-.635-.448-1.437-.448-2.408v-7.7H402.8v-3.108h2.464l.812-4.256h3.192v4.256h3.36v3.108h-3.36v7.112c0 .579.122 1.017.364 1.316.243.299.7.448 1.372.448h1.624v2.632a3.9 3.9 0 01-.896.224 9.897 9.897 0 01-1.12.168 6.854 6.854 0 01-1.008.084zm6.111-.336v-4.34h4.648V138h-4.648z" fill="#323232"/></svg>