<svg width="970" height="250" viewBox="0 0 970 250" fill="none" xmlns="http://www.w3.org/2000/svg"><path d="M308.335 27.839c.213.123.338.306.415.537a5.064 5.064 0 01.008.323l.001.136.002.143.003.47.003.324.006.768.007.96.014 1.714.078-.038.357-.17.124-.06c.285-.136.567-.257.869-.353l.13-.042c2.051-.642 4.352-.463 6.261.534a8.828 8.828 0 011.857 1.382l.09.081c1.198 1.123 1.941 2.898 1.994 4.529.018.71-.009 1.394-.183 2.086h.072a528.126 528.126 0 012.574.012 168.238 168.238 0 011.119.005c.145 0 .289.001.433.003h.129c.3.004.542.063.765.272.151.243.18.463.135.745-.078.246-.256.395-.475.518a.95.95 0 01-.347.049H324.334l-.427-.001h-.445l-.844-.001-.961-.001-1.977-.002-.041.102c-.064.16-.154.3-.245.446l-.059.093a5.825 5.825 0 01-.519.698l-.084.098c-.208.238-.43.463-.653.688l-.087.087a9.725 9.725 0 01-.522.482 5.757 5.757 0 00-.317.308 6.436 6.436 0 01-.408.386c-.153.13-.294.27-.435.413a7.752 7.752 0 01-.513.48c-.121.109-.236.225-.351.341a7.752 7.752 0 01-.513.48c-.121.108-.236.224-.351.34a7.752 7.752 0 01-.513.48c-.145.13-.281.271-.419.41a7.09 7.09 0 01-.448.414c-.113.101-.219.209-.326.317a6.465 6.465 0 01-.408.386 6.91 6.91 0 00-.434.413 8.317 8.317 0 01-.513.48c-.122.108-.237.224-.351.34a8.317 8.317 0 01-.513.48c-.122.11-.237.225-.351.342a8.317 8.317 0 01-.513.479c-.146.13-.281.27-.419.41a8.465 8.465 0 01-.537.493c-.068.067-.049.132-.049.225l-.001.12v.131l-.001.138-.001.298-.002.471a598.558 598.558 0 00-.011 2.159l-.001.312c0 .146-.001.291-.003.437l.001.13c-.003.267-.035.462-.218.67-.25.209-.461.294-.794.266-.301-.06-.476-.227-.648-.475a.835.835 0 01-.048-.32l.001-.118.001-.129.001-.28.001-.149v-.785c0-.333 0-.666.003-.999.002-.27.002-.538 0-.807l.002-.307c.026-.543.026-.543-.131-1.048a1.594 1.594 0 00-.305-.242 6.59 6.59 0 01-.171-.149 6.48 6.48 0 01-.391-.37 6.293 6.293 0 00-.386-.364 7.656 7.656 0 01-.475-.455 7.091 7.091 0 00-.434-.399c-.144-.129-.278-.268-.414-.406a5.237 5.237 0 00-.278-.255 6.137 6.137 0 01-.389-.367 6.293 6.293 0 00-.386-.365 7.656 7.656 0 01-.475-.454 7.091 7.091 0 00-.434-.4c-.144-.128-.278-.268-.414-.405a5.142 5.142 0 00-.276-.253 7.64 7.64 0 01-.474-.454 7.397 7.397 0 00-.434-.4c-.145-.128-.279-.268-.415-.405a5.122 5.122 0 00-.275-.253 7.656 7.656 0 01-.475-.454 6.81 6.81 0 00-.434-.4c-.144-.128-.278-.268-.414-.405a5.122 5.122 0 00-.275-.253 7.651 7.651 0 01-.475-.454 7.511 7.511 0 00-.443-.408c-.427-.373-.761-.828-1.092-1.285l-.056-.075c-.054-.092-.054-.092-.09-.22-.059-.166-.118-.292-.266-.39-.373-.104-.786-.062-1.169-.054h-.35a65.3 65.3 0 00-.828.007c-.494.007-.988.01-1.481.01-.201.001-.402.004-.603.007l-.317.002-.143.003c-.331.001-.611-.05-.863-.276a.969.969 0 01-.165-.779c.086-.245.251-.4.476-.522.193-.06.381-.053.582-.053l.138-.002a113.007 113.007 0 01.764-.005l.823-.006.84-.006c.549-.004 1.098-.008 1.648-.01l-.028-.145a12.5 12.5 0 00-.035-.189l-.018-.094c-.344-1.822.106-3.73 1.145-5.253a7.43 7.43 0 01.75-.886l.063-.066c1.415-1.491 3.433-2.255 5.468-2.318a8.138 8.138 0 013.764.818l.138.066.33.16v-.075a559.594 559.594 0 01.009-2.719l.003-.855.001-.327c-.001-.152.001-.304.002-.457l-.001-.136c.004-.285.056-.482.246-.7.307-.24.687-.312 1.053-.15zm-6.972 6.153l-.167.044a6.208 6.208 0 00-3.669 3.005 5.454 5.454 0 00-.441 3.777l.13.388h9.85l.021-2.94.01-.928.002-.55.003-.366c.002-.156.003-.313.003-.469 0-.084.002-.168.004-.252.001-.274.001-.274-.117-.512a2.029 2.029 0 00-.272-.203l-.086-.06a4.63 4.63 0 00-.235-.154l-.09-.055a6.508 6.508 0 00-1.663-.725l-.092-.026a6.373 6.373 0 00-3.191.026zm9.807 0l-.099.026a6.124 6.124 0 00-2.191 1.14l-.071.056c-.084.105-.075.18-.074.314l-.001.151.002.167v.178l.001.476.001.447.004 1.308.008 2.951h9.85c.15-.515.15-.515.248-1.036l.016-.112c.172-1.294-.217-2.66-.99-3.709a8.018 8.018 0 00-.268-.327l-.095-.113a6.015 6.015 0 00-1.46-1.226l-.084-.05c-.53-.317-1.095-.515-1.687-.684l-.094-.028c-.923-.252-2.106-.18-3.016.071zm-13.176 8.77c.165.22.325.428.513.629l.068.074c.143.151.29.292.45.425.123.108.236.224.351.34.14.142.28.282.432.41.177.151.337.315.5.48.118.119.237.233.364.342.177.15.337.314.5.479.118.119.237.233.364.341.177.15.337.315.5.48.118.118.237.233.364.341.177.15.337.315.5.48.118.118.237.233.364.341.177.15.337.315.5.48.118.118.237.232.364.34.177.151.337.315.5.48.118.119.237.233.364.342.177.15.337.314.5.479.118.119.237.233.364.341.152.13.292.269.432.41.231.234.461.466.734.649v-8.683h-9.028zm10.713 0v8.683c.275-.202.275-.202.519-.425l.086-.088.086-.09c.198-.202.398-.397.613-.581a5.35 5.35 0 00.295-.285c.152-.154.308-.298.472-.439.106-.094.205-.194.305-.295.125-.127.251-.25.386-.365.145-.124.28-.256.413-.391.16-.162.323-.315.496-.462.105-.094.204-.194.304-.294.125-.127.25-.25.386-.365.144-.124.279-.256.413-.391a7.91 7.91 0 01.495-.462c.145-.13.279-.269.415-.407a6.73 6.73 0 01.361-.326c.106-.095.206-.195.306-.296.125-.126.25-.249.386-.364.144-.124.279-.256.413-.392a7.91 7.91 0 01.495-.462c.145-.128.278-.268.414-.405a5.68 5.68 0 01.287-.264 3.83 3.83 0 00.726-.834h-9.072zM190.496 57.913h.099l.32-.001h.693l.6-.002a88.935 88.935 0 01.683-.002h.401a.832.832 0 01.503.146c.126.169.146.292.147.5l.001.084v.28l.002.2.002.544.002.568.004 1.077.005 1.225c.004.84.008 1.68.01 2.52l.095-.113.126-.152.062-.075c.892-1.064 2.314-1.591 3.667-1.726a11.7 11.7 0 01.756-.018h.09c.471.001.923.026 1.382.14l.093.024a5.97 5.97 0 013.676 2.753c1.254 2.172 1.394 4.887.81 7.29a7.282 7.282 0 01-1.512 2.894l-.08.096c-.907 1.072-2.333 1.756-3.722 1.891-.117.005-.234.008-.351.009h-.099l-.314.002h-.108c-.554 0-1.09-.023-1.633-.14l-.104-.022c-1.203-.26-2.26-.858-2.964-1.88a6.281 6.281 0 00-.043-.086l-.001.123-.008.454-.003.195c0 .095-.002.189-.005.283l-.002.171a.737.737 0 01-.197.416c-.154.105-.313.1-.493.1h-.098c-.105.002-.211.002-.317.002l-.221.001-.464.002-.593.003a57.761 57.761 0 01-.675.004h-.306l-.091.002c-.239-.004-.337-.08-.5-.244-.064-.127-.049-.255-.049-.394l-.001-.098v-.328-.236l-.001-.65-.001-.702-.002-1.694v-.798l-.002-2.649v-.688-.172l-.003-2.771-.002-2.843-.002-1.597-.001-1.36-.001-.693v-.636-.542l-.001-.09c.003-.213.062-.335.195-.499.173-.103.35-.099.546-.098zm4.37 9.141c-.463.536-.728 1.208-.898 1.887l-.023.092c-.238.997-.196 2.204.066 3.191l.024.09c.168.616.45 1.21.883 1.681l.098.11c.536.571 1.248.91 2.033.937.94.017 1.729-.154 2.457-.797.976-.966 1.303-2.364 1.334-3.699.005-1.358-.325-2.734-1.299-3.722a2.992 2.992 0 00-2.063-.88c-1.091.002-1.862.318-2.612 1.11zM260.744 57.908h1.709a88.935 88.935 0 01.992 0h.091c.231.002.408.051.574.217.08.14.076.266.075.422V58.973l.001.236v.652l.001.703.001 1.377.001 1.119v.483l.001 2.946c0 .896 0 1.793.002 2.69l.002 3.02.001 1.6v1.361l.001.695-.001.636.001.23c.001.105 0 .21-.001.313l.002.091c-.005.239-.083.337-.245.499-.128.064-.257.05-.397.05a338.05 338.05 0 01-.416.003l-.11.001-.577.002c-.198 0-.396.002-.595.004a69.68 69.68 0 01-.677.003 22.44 22.44 0 01-.307 0l-.091.002c-.215-.002-.337-.06-.502-.195-.1-.17-.099-.335-.104-.53l-.003-.089-.006-.28-.005-.19a72.26 72.26 0 01-.011-.466l-.061.087c-.793 1.143-1.897 1.679-3.244 1.933l-.324.054-.087.014c-.322.043-.649.038-.974.04l-.313.003a5.737 5.737 0 01-4.016-1.596c-1.338-1.252-1.99-3.014-2.17-4.812l-.015-.134c-.131-1.456-.007-2.979.49-4.358l.057-.16c.614-1.614 1.755-2.876 3.335-3.587.77-.33 1.567-.461 2.402-.457h.088c1.515.008 3.105.44 4.201 1.543.165.172.325.345.458.544v-.106l.01-2.536.005-1.227.004-1.069.002-.566.003-.533v-.195l.002-.267v-.151a.636.636 0 01.147-.349c.194-.128.366-.148.593-.146zm-6.479 9.062c-.736.871-1.078 2.053-1.113 3.18l-.005.156c-.023 1.386.269 2.813 1.244 3.849.631.626 1.37.885 2.252.896.805-.004 1.511-.212 2.125-.753l.097-.085c.85-.793 1.234-2.058 1.294-3.19.005-.172.006-.343.005-.513v-.092c-.002-.487-.03-.959-.143-1.434a5.18 5.18 0 00-.562-1.426l-.072-.132c-.401-.678-1.043-1.14-1.787-1.379-1.216-.31-2.467.005-3.335.923zM294.224 57.908h1.709a88.935 88.935 0 01.991 0h.092c.231.002.407.051.573.217.08.14.077.266.075.422l.001.098v.328l.001.236v.652l.001.703a631.906 631.906 0 01.002 2.496V66.489l.002 2.69c.002 1.006.003 2.013.002 3.02l.002 1.6v2.056a67.416 67.416 0 01.001.867l-.001.313.001.09c-.004.239-.082.337-.244.499-.128.064-.258.05-.398.05l-.097.002-.319.001-.109.001-.577.002c-.198 0-.397.002-.595.004a69.923 69.923 0 01-.677.003h-.308l-.091.002c-.214-.002-.336-.06-.501-.195-.1-.17-.1-.335-.104-.53a87.47 87.47 0 01-.003-.089l-.007-.28-.005-.19-.011-.466-.06.087c-.795 1.147-1.908 1.684-3.251 1.935a14.615 14.615 0 01-.403.065c-.323.044-.65.04-.975.04-.105 0-.209.002-.313.004a5.737 5.737 0 01-4.016-1.596c-1.333-1.247-1.995-3.02-2.171-4.812l-.014-.147c-.18-2.196.17-4.668 1.632-6.407 1.043-1.2 2.404-1.966 3.998-2.129a11.148 11.148 0 01.742-.013c1.515.008 3.105.44 4.201 1.543.164.172.325.345.457.544l.001-.106c.002-.845.006-1.69.01-2.536l.004-1.227.005-1.069.002-.566.002-.533.001-.195.001-.267.001-.151a.642.642 0 01.146-.349c.194-.128.367-.148.594-.146zm-6.499 9.087c-.962 1.155-1.193 2.764-1.063 4.216.126 1.245.54 2.389 1.509 3.224.745.571 1.669.699 2.585.584a2.995 2.995 0 001.492-.721l.097-.085c.849-.792 1.24-2.049 1.293-3.184.02-.687.023-1.373-.137-2.045l-.022-.093c-.233-.958-.707-1.888-1.55-2.445-1.349-.809-3.131-.668-4.204.55zM223.753 62.97h.139l.443-.002h.152c.752 0 1.484.022 2.227.14.039.007.079.012.119.018 1.043.155 2.141.488 2.948 1.192l.088.07c.659.535.981 1.352 1.078 2.177.006.148.007.296.007.444v.134l.001.443.001.319a302.864 302.864 0 01.002 1.402l.002 1.494v.484l.003 1.56a855.897 855.897 0 01.004 2.502l.001.845v.734l.002.124c-.003.248-.034.383-.196.574-.148.112-.315.1-.493.099a338.05 338.05 0 01-.415.002h-.221c-.154.001-.309.002-.463.001-.198 0-.396.002-.593.003a77.56 77.56 0 01-.676.002h-.306l-.09.002c-.215-.003-.335-.063-.501-.195-.09-.13-.099-.242-.104-.398l-.005-.128-.004-.133-.005-.135-.012-.33-.055.059a3.127 3.127 0 01-.547.457l-.084.055c-1.77 1.135-4.064 1.376-6.093.94-1.143-.264-2.168-.862-2.808-1.866-.627-1.036-.715-2.372-.435-3.533.261-.961.879-1.697 1.73-2.199 1.495-.838 3.34-.912 5.003-1.109 1.614-.14 1.614-.14 2.96-.95.243-.364.225-.8.15-1.216-.109-.423-.314-.767-.685-1.006-.935-.453-2.177-.483-3.164-.183-.574.207-.971.534-1.232 1.09a3.13 3.13 0 00-.121.365.695.695 0 01-.278.413c-.132.067-.272.05-.417.051a208.288 208.288 0 01-.443.003h-.118l-.614.002c-.211 0-.423.002-.634.004a79.383 79.383 0 01-.722.003h-.327l-.098.002c-.22-.002-.345-.055-.515-.194-.128-.216-.105-.457-.051-.694a6.29 6.29 0 01.051-.19l.029-.101c.209-.704.594-1.293 1.094-1.823l.079-.09c1.236-1.334 3.488-1.726 5.212-1.734zm2.85 7.845l-.149.08-.143.08c-.64.292-1.411.33-2.099.422-1.628.198-1.628.198-2.961 1.073-.361.495-.396 1.069-.306 1.659.097.377.351.686.671.903.903.518 2.185.484 3.17.232.739-.241 1.314-.6 1.693-1.306.295-.648.345-1.376.321-2.08l-.005-.135c-.011-.33-.024-.659-.038-.988-.058-.003-.058-.003-.154.06zM167.978 62.966h.15c1.909.005 4.082.178 5.547 1.555.948.997.947 2.247.944 3.54v.306l-.002.995-.001.344-.004 1.43-.001.368v.093l-.003 1.49-.003 1.534-.002.86c.001.268 0 .537-.002.806v.297l-.002.404.002.118c-.004.184-.015.308-.131.455-.176.163-.329.156-.557.156a28.633 28.633 0 01-.411.002h-.218l-.459.002-.587.002a97.289 97.289 0 01-.669.002 30.603 30.603 0 01-.393.002.664.664 0 01-.449-.146c-.127-.132-.147-.227-.152-.407l-.005-.134-.003-.14-.004-.14c-.004-.116-.007-.23-.009-.346l-.07.067c-1.45 1.366-3.518 1.672-5.43 1.625-1.363-.055-2.759-.494-3.711-1.509-.875-.983-.991-2.206-.941-3.466a3.05 3.05 0 01.129-.648l.045-.153c.295-.915.93-1.615 1.771-2.058 1.273-.639 2.692-.798 4.088-.958.309-.035.618-.07.926-.108l.099-.011c1.458-.144 1.458-.144 2.693-.849.258-.333.262-.727.228-1.133-.086-.436-.245-.83-.616-1.094-.849-.513-2.026-.535-2.975-.33-.601.15-1.093.405-1.42.949-.082.183-.15.37-.216.561-.077.216-.147.35-.346.475a2.274 2.274 0 01-.349.023l-.105.002h-1.08c-.213 0-.426 0-.639.002a62.068 62.068 0 01-.728.001h-.329l-.098.001c-.248-.004-.349-.075-.517-.245-.181-.362.02-.852.137-1.209.414-1.176 1.338-2.032 2.438-2.574 1.399-.65 2.917-.814 4.44-.81zm2.146 7.927c-.655.33-1.42.396-2.138.489-1.734.19-1.734.19-3.123 1.153-.305.431-.366.92-.301 1.438.086.444.304.786.675 1.043.88.53 2.133.493 3.103.263.7-.18 1.315-.531 1.693-1.165.301-.556.398-1.127.397-1.753v-.12-.247-.38-.241-.115-.106-.094a1.213 1.213 0 00-.049-.26c-.111 0-.16.04-.257.095zM273.01 62.97h.104c1.454-.01 1.454-.01 2.113.139l.115.025a7.045 7.045 0 012.996 1.487l.104.085c.202.171.376.358.544.563l.054.065c1.219 1.486 1.812 3.35 1.822 5.265l.002.155-.002.145-.001.128a.61.61 0 01-.147.333c-.228.148-.425.148-.688.145H279.156l-.752-.002-.875-.001a813.442 813.442 0 01-3.076-.005h-.564L270 71.49l.059.452.016.127c.116.878.457 1.675 1.135 2.263.916.676 2.156.79 3.255.629.814-.151 1.634-.564 2.162-1.213.066-.097.12-.2.177-.3a.612.612 0 01.238-.23c.132-.017.132-.017.29-.017h.087a26.914 26.914 0 01.482-.001H278.848a79.658 79.658 0 01.879 0l.158.001a.58.58 0 01.432.243.682.682 0 01.026.503 4.072 4.072 0 01-.118.259l-.046.095a6.999 6.999 0 01-.977 1.465l-.107.125c-.919 1.047-2.129 1.663-3.473 1.979l-.112.026c-.654.147-1.307.176-1.976.174h-.117c-.586-.003-1.157-.021-1.732-.144l-.125-.026c-1.335-.285-2.589-.85-3.571-1.814a14.462 14.462 0 00-.193-.183c-1.233-1.17-1.986-2.995-2.037-4.686l-.003-.193-.001-.106c-.02-2.099.487-4.086 1.981-5.629.062-.064.122-.13.183-.194.682-.717 1.551-1.242 2.47-1.597l.088-.035a7.36 7.36 0 012.533-.493zm-2.17 4.008c-.497.574-.728 1.212-.797 1.963h6.653a3.347 3.347 0 00-.156-.764l-.035-.102c-.279-.792-.693-1.452-1.469-1.826-1.395-.605-3.128-.38-4.196.729zM241.871 62.928h.091c1.505.005 2.939.314 4.065 1.374 1.169 1.202 1.299 3.013 1.3 4.596l.001.274.001.74v.462l.001 1.446c.001.556.001 1.113.003 1.669l.001 1.291.001.771v.724l.001.266v.362l.001.107c-.002.245-.053.385-.22.562-.144.075-.282.07-.441.069h-1.806a113.402 113.402 0 01-1.048 0h-.097c-.191-.002-.316-.025-.466-.147-.105-.155-.098-.313-.098-.493v-.099l-.001-.326v-.235l-.002-.505-.002-.8-.005-1.705-.005-1.832-.002-.664c.09-2.241.09-2.241-.863-4.179-.577-.517-1.345-.596-2.089-.566-.759.055-1.488.268-2.023.835-.696.855-.805 1.987-.802 3.05l-.001.234-.001.497-.002.788-.003 1.528c-.001.65-.002 1.3-.005 1.95l-.001.783-.001.486v.225l-.001.307.001.09a1.589 1.589 0 01-.099.545c-.207.202-.383.222-.661.223a507.04 507.04 0 01-.415.002h-.222l-.464.001-.594.003a99.453 99.453 0 01-.676.002 28.56 28.56 0 01-.398.002.845.845 0 01-.579-.211c-.104-.132-.1-.262-.1-.422l-.001-.143v-.159-.167l-.001-.462-.001-.497-.002-1.202v-.566l-.002-1.88v-.488-.122l-.003-1.966c-.002-.672-.002-1.345-.003-2.017l-.001-1.133-.001-.965-.001-.492v-.533l-.001-.158c.002-.27.01-.442.195-.647.147-.111.312-.099.49-.099h.096l.313-.002h.218l.458-.001.585-.003a67.5 67.5 0 01.666-.002h.302l.09-.002c.213.003.332.064.497.196.122.155.102.35.105.539l.002.107.007.336.005.23.011.559.086-.114c.908-1.193 2.14-1.942 3.629-2.176l.152-.024c.277-.033.557-.028.836-.027zM184.093 57.918h.099l.323-.002h.225l.47-.002c.201 0 .402 0 .603-.002a102.871 102.871 0 01.687-.002h.311l.092-.002c.229.002.36.065.531.211.124.149.103.324.103.507v.097l.001.326v.235l.001.648.001.698a947.645 947.645 0 01.002 2.48l.002 2.636V66.602c0 .92.002 1.838.003 2.758l.002 2.829.002 1.589.001 1.353v1.323l.001.229v.31l.001.09c-.003.213-.064.333-.196.498-.15.116-.327.099-.51.098h-.102l-.335.001h-.722l-.625.002a96.4 96.4 0 01-.712.002H183.933c-.19-.002-.317-.02-.463-.146a1.233 1.233 0 01-.145-.633l-.001-.097v-.322-.873l-.001-.692v-1.353l.001-1.1-.001-.158v-.317l.001-2.981v-2.558l-.001-2.97.001-.317v-.157l-.001-1.1.001-1.338v-1.308-.226l.001-.307v-.173c.021-.212.072-.392.232-.541.177-.1.339-.099.536-.1zM177.671 57.903h.642a66.445 66.445 0 001.067.002 78.598 78.598 0 01.682 0l.309.002h.092a.897.897 0 01.502.147c.171.19.179.368.178.613l.001.096v.557l.001.643v.693l.001 1.516.001.946.001 2.618V66.586l.002 2.738.002 2.81.001 1.577v1.344l.001.685v1.163l.001.09a1.116 1.116 0 01-.147.545c-.169.147-.342.148-.558.147h-.102a33.603 33.603 0 01-.566.002h-.487c-.208-.001-.415 0-.623.001a69.819 69.819 0 01-.71.001h-.322l-.095.001a.691.691 0 01-.511-.196c-.093-.176-.099-.342-.098-.538v-.097-.325-.235l-.001-.646v-.696l-.001-1.365v-1.108-.16V69l-.001-2.75c-.001-.941-.002-1.882-.001-2.823l-.001-1.585v-1.35-.688a66.15 66.15 0 010-.63v-.539l-.001-.09a.66.66 0 01.147-.447c.193-.163.348-.198.594-.195zM216.216 63.13c.135.169.135.26.137.474l.001.087.002.285v.099l.002.516.004.532.002.41.001.196.001.275.001.158c-.026.173-.087.266-.194.403-.144.106-.279.095-.454.092l-.169-.003-.089-.001c-1.157-.02-2.352.052-3.271.843-.078.062-.078.062-.169.103-.104.058-.12.112-.168.219a5.937 5.937 0 01-.135.162c-.818 1.04-.91 2.423-.908 3.692v.585l-.001.63-.001.107v.218l-.003 1.461-.002.991-.001.523c.001.163 0 .327-.001.49v.18c.004.461.004.461-.125.648-.226.143-.383.173-.652.174h-.095l-.307.001h-.665l-.575.002a82.14 82.14 0 01-.656.001 26.73 26.73 0 01-.467 0 .972.972 0 01-.542-.21c-.1-.133-.097-.262-.097-.422l-.001-.143v-.158-.168l-.001-.462-.001-.497-.002-1.202v-.566l-.002-1.88v-.488-.122l-.003-1.966c-.002-.672-.002-1.344-.002-2.017l-.002-1.133-.001-.964-.001-.493v-.533l-.001-.157c.002-.272.01-.443.195-.648.149-.112.316-.099.495-.099h.098l.319-.002h.221l.465-.001a77.691 77.691 0 011.273-.005h.306l.092-.002c.146.002.218.013.334.105.11.143.118.223.117.401V64.302l-.002.497v.336l-.002.825h.086l.012-.091c.223-.893 1.223-1.704 1.972-2.163.804-.479 2.765-1.298 3.632-.576zM316.386 55.565c.406.432.556.95.547 1.535-.022.547-.256.992-.623 1.394-.495.453-1.075.545-1.718.518-.409-.032-.735-.229-1.046-.482l-.084-.066c-.383-.337-.576-.874-.615-1.371a2.154 2.154 0 01.44-1.371l.089-.127c.293-.344.828-.613 1.279-.65.682-.009 1.23.146 1.731.62zm-2.235.113l-.09.054a1.54 1.54 0 00-.662.982c-.067.423.026.82.276 1.168.246.302.562.53.951.604.475.044.889-.053 1.262-.359.33-.312.513-.697.531-1.153-.019-.44-.171-.754-.475-1.07-.388-.344-.729-.42-1.232-.41a1.073 1.073 0 00-.561.184z" fill="#121213"/><path d="M314.194 56.024l.545-.01.171-.006c.463-.004.463-.004.666.189.134.136.148.238.149.426-.006.23-.034.356-.192.524h-.087l.076.148.097.192.05.098.047.094.044.086c.032.073.032.073.032.16h-.475l-.064-.131-.087-.169a8.77 8.77 0 01-.042-.086c-.085-.163-.085-.163-.242-.248-.106-.015-.106-.015-.256-.014v.648h-.432v-1.901zm.432.346v.561c.287.026.287.026.545-.07.077-.133.085-.21.059-.362a.402.402 0 00-.284-.142l-.115.005-.205.008z" fill="#121213"/></svg>