<svg width="160" height="32" viewBox="0 0 160 32" fill="none" xmlns="http://www.w3.org/2000/svg"><rect width="160" height="32" rx="16" fill="#685FEF"/><path d="M24.353 20.144A5.8 5.8 0 0123.045 20a3.62 3.62 0 01-1.104-.468 2.457 2.457 0 01-.756-.792c-.184-.32-.276-.696-.276-1.128v-.144a.722.722 0 00.012-.108h1.572a.736.736 0 01-.012.096v.108c0 .264.076.492.228.684.152.184.372.328.66.432.288.096.628.144 1.02.144.264 0 .496-.016.696-.048.208-.032.384-.076.528-.132a1.47 1.47 0 00.372-.216.765.765 0 00.204-.288.792.792 0 00.072-.336.804.804 0 00-.216-.576 1.705 1.705 0 00-.588-.384 5.57 5.57 0 00-.828-.276c-.304-.088-.62-.176-.948-.264-.32-.088-.636-.192-.948-.312a4.324 4.324 0 01-.828-.456 1.99 1.99 0 01-.576-.66c-.144-.272-.216-.596-.216-.972 0-.384.08-.72.24-1.008.168-.288.4-.524.696-.708a3.28 3.28 0 011.056-.42 5.6 5.6 0 011.308-.144c.44 0 .852.048 1.236.144.392.088.736.232 1.032.432.296.192.528.44.696.744.168.296.252.652.252 1.068v.144h-1.548v-.12a.847.847 0 00-.216-.588c-.136-.16-.332-.284-.588-.372a2.621 2.621 0 00-.876-.132c-.36 0-.668.036-.924.108-.256.064-.452.164-.588.3a.632.632 0 00-.204.48c0 .2.072.368.216.504.144.136.336.252.576.348.248.096.524.184.828.264.312.08.628.168.948.264.328.088.644.192.948.312.312.12.588.272.828.456.248.176.444.396.588.66.144.264.216.58.216.948 0 .616-.152 1.112-.456 1.488-.296.376-.708.648-1.236.816-.52.168-1.116.252-1.788.252zm4.8-.144v-8.676h1.464v3.084h.084a2.255 2.255 0 011.104-.744c.24-.08.504-.12.792-.12.4 0 .752.072 1.056.216.312.144.556.376.732.696.176.32.264.748.264 1.284V20h-1.476v-3.996a1.54 1.54 0 00-.084-.552.756.756 0 00-.228-.36.802.802 0 00-.36-.204 1.792 1.792 0 00-.48-.06c-.264 0-.504.064-.72.192a1.453 1.453 0 00-.504.528c-.12.224-.18.484-.18.78V20h-1.464zm9.816.144c-.688 0-1.264-.116-1.728-.348a2.307 2.307 0 01-1.044-1.092c-.232-.488-.348-1.108-.348-1.86 0-.76.116-1.38.348-1.86.232-.488.58-.848 1.044-1.08.464-.24 1.04-.36 1.728-.36.696 0 1.272.12 1.728.36.464.232.812.592 1.044 1.08.232.48.348 1.1.348 1.86 0 .752-.116 1.372-.348 1.86-.232.488-.58.852-1.044 1.092-.456.232-1.032.348-1.728.348zm0-1.2c.384 0 .692-.072.924-.216a1.26 1.26 0 00.516-.672c.112-.304.168-.68.168-1.128v-.168c0-.448-.056-.82-.168-1.116-.104-.304-.276-.528-.516-.672-.232-.152-.54-.228-.924-.228s-.696.076-.936.228c-.232.144-.404.368-.516.672-.104.296-.156.668-.156 1.116v.168c0 .448.052.824.156 1.128.112.296.284.52.516.672.24.144.552.216.936.216zm4.364 3.132v-8.388h1.212l.12.84h.084c.208-.328.48-.572.816-.732a2.46 2.46 0 011.116-.252c.52 0 .964.116 1.332.348.376.232.664.592.864 1.08.208.488.312 1.116.312 1.884 0 .752-.104 1.372-.312 1.86-.208.488-.496.848-.864 1.08-.36.232-.776.348-1.248.348a3.07 3.07 0 01-.792-.096 2.01 2.01 0 01-.636-.288c-.184-.136-.34-.3-.468-.492h-.072v2.808h-1.464zm2.892-3.192c.36 0 .644-.068.852-.204.216-.144.368-.36.456-.648.096-.288.144-.652.144-1.092v-.168c0-.448-.048-.816-.144-1.104-.088-.296-.24-.512-.456-.648-.208-.144-.492-.216-.852-.216-.328 0-.6.076-.816.228-.208.152-.364.376-.468.672-.096.288-.144.644-.144 1.068v.144c0 .312.028.592.084.84.056.24.14.444.252.612a1.2 1.2 0 00.444.384c.184.088.4.132.648.132zm7.452 3.3c-.296 0-.536-.024-.72-.072a6.086 6.086 0 01-.312-.072v-1.044h.672c.168 0 .336-.044.504-.132a1.618 1.618 0 00.756-.864l-2.46-6.312h1.536l1.176 3.024c.056.136.112.308.168.516.064.208.128.424.192.648.064.216.116.412.156.588h.06a130.071 130.071 0 00.228-.876c.048-.16.096-.316.144-.468.048-.152.088-.284.12-.396l.96-3.036h1.488l-2.112 5.988c-.12.336-.256.656-.408.96a3.55 3.55 0 01-.516.804 1.996 1.996 0 01-.696.54 2.019 2.019 0 01-.936.204zm8.32-2.04c-.689 0-1.265-.116-1.729-.348a2.307 2.307 0 01-1.044-1.092c-.232-.488-.348-1.108-.348-1.86 0-.76.116-1.38.348-1.86.232-.488.58-.848 1.044-1.08.464-.24 1.04-.36 1.728-.36.696 0 1.272.12 1.728.36.464.232.812.592 1.044 1.08.232.48.348 1.1.348 1.86 0 .752-.116 1.372-.348 1.86-.232.488-.58.852-1.044 1.092-.456.232-1.032.348-1.728.348zm0-1.2c.383 0 .691-.072.923-.216a1.26 1.26 0 00.516-.672c.112-.304.168-.68.168-1.128v-.168c0-.448-.056-.82-.168-1.116-.104-.304-.276-.528-.516-.672-.232-.152-.54-.228-.924-.228s-.696.076-.936.228c-.232.144-.404.368-.516.672-.104.296-.156.668-.156 1.116v.168c0 .448.052.824.156 1.128.112.296.284.52.516.672.24.144.552.216.936.216zm6.367 1.2c-.608 0-1.104-.164-1.488-.492-.376-.336-.564-.904-.564-1.704v-4.26h1.464v3.996c0 .224.024.412.072.564.056.144.132.264.228.36a.969.969 0 00.372.192c.144.04.304.06.48.06.264 0 .5-.064.708-.192.216-.128.384-.304.504-.528.128-.232.192-.492.192-.78v-3.672h1.464V20h-1.212l-.12-.84h-.084a2.627 2.627 0 01-.516.516 2.206 2.206 0 01-.672.336 2.463 2.463 0 01-.828.132zM73.356 20v-6.312h1.224l.12.996h.084a3 3 0 01.288-.552c.12-.176.272-.316.456-.42a1.27 1.27 0 01.672-.168c.128 0 .244.012.348.036.112.024.196.048.252.072v1.38h-.444c-.248 0-.468.036-.66.108a1.178 1.178 0 00-.492.312 1.396 1.396 0 00-.288.54 2.671 2.671 0 00-.096.756V20h-1.464zm6.516 0v-6.312h1.224l.12.84h.084c.136-.192.292-.36.468-.504.176-.152.376-.268.6-.348.232-.088.484-.132.756-.132.368 0 .696.076.984.228.288.152.512.404.672.756h.084c.136-.192.296-.36.48-.504.184-.152.396-.268.636-.348.24-.088.5-.132.78-.132.376 0 .708.068.996.204a1.5 1.5 0 01.684.672c.168.312.252.728.252 1.248V20h-1.464v-4.032a1.73 1.73 0 00-.072-.54.774.774 0 00-.204-.348.69.69 0 00-.312-.192c-.12-.04-.252-.06-.396-.06-.232 0-.44.064-.624.192a1.378 1.378 0 00-.444.528 1.834 1.834 0 00-.156.78V20h-1.464v-4.032a1.73 1.73 0 00-.072-.54.774.774 0 00-.204-.348.69.69 0 00-.312-.192c-.12-.04-.252-.06-.396-.06-.232 0-.444.064-.636.192a1.378 1.378 0 00-.444.528 1.834 1.834 0 00-.156.78V20h-1.464zm13.048.144c-.672 0-1.232-.116-1.68-.348a2.274 2.274 0 01-1.008-1.092c-.224-.488-.336-1.108-.336-1.86 0-.76.112-1.38.336-1.86.224-.488.56-.848 1.008-1.08.448-.24 1.008-.36 1.68-.36.608 0 1.116.116 1.524.348.416.224.728.572.936 1.044.208.472.312 1.084.312 1.836v.432h-4.296c.016.392.076.724.18.996.104.264.264.464.48.6.224.128.516.192.876.192.184 0 .356-.024.516-.072.16-.048.3-.12.42-.216.12-.104.212-.232.276-.384a1.22 1.22 0 00.108-.528h1.44c0 .4-.072.748-.216 1.044-.136.296-.332.54-.588.732-.248.192-.54.336-.876.432-.336.096-.7.144-1.092.144zm-1.5-3.972h2.748c0-.264-.032-.488-.096-.672a1.145 1.145 0 00-.252-.456.829.829 0 00-.384-.252 1.485 1.485 0 00-.516-.084c-.312 0-.576.052-.792.156a1.072 1.072 0 00-.48.48c-.112.216-.188.492-.228.828zM96.934 20v-6.312h1.224l.12.996h.084a3 3 0 01.288-.552c.12-.176.272-.316.456-.42a1.27 1.27 0 01.672-.168c.128 0 .244.012.348.036.112.024.196.048.252.072v1.38h-.444c-.248 0-.468.036-.66.108a1.178 1.178 0 00-.492.312 1.396 1.396 0 00-.288.54 2.671 2.671 0 00-.096.756V20h-1.464zm6.859.144c-.656 0-1.204-.116-1.644-.348-.432-.24-.756-.604-.972-1.092-.216-.488-.324-1.108-.324-1.86 0-.76.108-1.38.324-1.86.224-.488.552-.848.984-1.08.44-.24.984-.36 1.632-.36.424 0 .8.052 1.128.156.328.104.608.264.84.48.24.208.42.468.54.78.12.312.18.676.18 1.092h-1.488c0-.296-.044-.54-.132-.732a.893.893 0 00-.408-.432c-.176-.104-.404-.156-.684-.156-.328 0-.596.076-.804.228-.208.152-.364.38-.468.684-.096.296-.144.672-.144 1.128v.156c0 .448.048.824.144 1.128.104.304.264.532.48.684.216.144.5.216.852.216.272 0 .496-.048.672-.144.184-.104.324-.256.42-.456.096-.2.144-.44.144-.72h1.416c0 .392-.06.744-.18 1.056a2.09 2.09 0 01-.528.792c-.232.216-.516.38-.852.492a3.485 3.485 0 01-1.128.168zm3.934-.144v-8.676h1.464v3.084h.084a2.255 2.255 0 011.104-.744c.24-.08.504-.12.792-.12.4 0 .752.072 1.056.216.312.144.556.376.732.696.176.32.264.748.264 1.284V20h-1.476v-3.996a1.54 1.54 0 00-.084-.552.756.756 0 00-.228-.36.802.802 0 00-.36-.204 1.792 1.792 0 00-.48-.06c-.264 0-.504.064-.72.192a1.453 1.453 0 00-.504.528c-.12.224-.18.484-.18.78V20h-1.464zm9.41 0v-6.312h1.224l.12.84h.084c.144-.192.312-.36.504-.504.2-.152.424-.268.672-.348.256-.088.536-.132.84-.132.4 0 .752.072 1.056.216.312.144.556.376.732.696.176.32.264.748.264 1.284V20h-1.476v-3.996a1.54 1.54 0 00-.084-.552.756.756 0 00-.228-.36.802.802 0 00-.36-.204 1.792 1.792 0 00-.48-.06c-.264 0-.504.064-.72.192a1.453 1.453 0 00-.504.528c-.12.224-.18.484-.18.78V20h-1.464zm9.816.144c-.688 0-1.264-.116-1.728-.348a2.307 2.307 0 01-1.044-1.092c-.232-.488-.348-1.108-.348-1.86 0-.76.116-1.38.348-1.86.232-.488.58-.848 1.044-1.08.464-.24 1.04-.36 1.728-.36.696 0 1.272.12 1.728.36.464.232.812.592 1.044 1.08.232.48.348 1.1.348 1.86 0 .752-.116 1.372-.348 1.86-.232.488-.58.852-1.044 1.092-.456.232-1.032.348-1.728.348zm0-1.2c.384 0 .692-.072.924-.216a1.26 1.26 0 00.516-.672c.112-.304.168-.68.168-1.128v-.168c0-.448-.056-.82-.168-1.116-.104-.304-.276-.528-.516-.672-.232-.152-.54-.228-.924-.228s-.696.076-.936.228c-.232.144-.404.368-.516.672-.104.296-.156.668-.156 1.116v.168c0 .448.052.824.156 1.128.112.296.284.52.516.672.24.144.552.216.936.216zM132.457 20l-1.884-6.312h1.512l.876 3.432c.048.176.088.352.12.528l.084.432c.024.12.04.192.048.216h.072c.032-.144.064-.3.096-.468.032-.168.06-.32.084-.456a6.9 6.9 0 00.06-.288l.816-3.396h1.572l.852 3.408c.032.112.06.244.084.396l.096.432c.032.144.056.268.072.372h.072l.06-.348a34.703 34.703 0 00.18-.816l.864-3.444h1.404L137.725 20h-1.548l-.72-3.012a14.29 14.29 0 00-.12-.516l-.12-.576-.084-.492h-.072c0 .056-.012.156-.036.3-.024.144-.06.324-.108.54-.04.216-.096.464-.168.744L134.005 20h-1.548z" fill="#fff"/></svg>