<svg width="728" height="90" viewBox="0 0 728 90" fill="none" xmlns="http://www.w3.org/2000/svg"><path d="M131.594 23.43a.713.713 0 01.323.418c.003.052.005.103.005.155l.001.096.001.106.001.111.003.365.002.253.004.597.006.747.011 1.333.061-.03.278-.132.096-.047c.222-.106.441-.2.676-.274l.101-.033c1.595-.5 3.385-.36 4.869.415a6.848 6.848 0 011.445 1.076l.07.063c.932.873 1.509 2.254 1.55 3.522.015.552-.006 1.084-.142 1.623a147120626406.187 147120626406.187 0 002.059.009 120.278 120.278 0 01.87.004 38.096 38.096 0 01.436.001c.234.004.422.05.596.212a.77.77 0 01.105.58c-.061.191-.199.308-.37.403a.735.735 0 01-.269.038H143.706l-.347-.001h-.656l-.748-.002-1.537-.001-.032.08c-.05.124-.12.233-.191.346l-.045.072c-.123.193-.255.371-.404.543l-.065.076c-.162.186-.335.36-.508.535l-.068.068c-.131.13-.266.255-.406.376a4.976 4.976 0 00-.247.239 4.886 4.886 0 01-.317.3c-.119.102-.228.21-.338.322a6.22 6.22 0 01-.399.372 5.9 5.9 0 00-.273.266 6.22 6.22 0 01-.399.373 5.9 5.9 0 00-.273.265 6.22 6.22 0 01-.399.373c-.113.102-.219.211-.326.32a5.624 5.624 0 01-.348.32 5.735 5.735 0 00-.254.247 5.19 5.19 0 01-.317.3c-.119.102-.229.21-.338.322-.129.13-.26.254-.399.373a5.9 5.9 0 00-.273.265c-.129.13-.26.255-.399.373a5.9 5.9 0 00-.273.266c-.129.13-.26.254-.399.373-.113.101-.219.21-.326.318a6.336 6.336 0 01-.418.384c-.052.052-.038.102-.038.175l-.001.093v.21l-.001.231-.002.367-.005 1.042-.003.637-.001.242-.002.34v.102c-.002.208-.026.358-.169.52-.195.163-.359.23-.618.207-.234-.046-.369-.176-.504-.37a.682.682 0 01-.037-.248l.001-.091.001-.1v-.218l.001-.116a62.14 62.14 0 000-.611c0-.26 0-.518.002-.777.002-.21.002-.419.001-.628l.001-.239c.02-.422.02-.422-.102-.815a1.202 1.202 0 00-.237-.188 6.04 6.04 0 01-.199-.172 5.822 5.822 0 01-.238-.231 4.808 4.808 0 00-.3-.284 6.018 6.018 0 01-.37-.353c-.108-.11-.22-.21-.337-.31-.113-.1-.217-.21-.322-.316a4.363 4.363 0 00-.217-.199 4.906 4.906 0 01-.302-.286 4.808 4.808 0 00-.3-.283 6.018 6.018 0 01-.37-.353c-.108-.11-.22-.211-.337-.31-.113-.101-.217-.21-.323-.317a3.897 3.897 0 00-.214-.196 6 6 0 01-.369-.353 5.644 5.644 0 00-.337-.31c-.113-.101-.217-.21-.323-.317a3.897 3.897 0 00-.214-.196 6 6 0 01-.369-.353 5.661 5.661 0 00-.338-.31c-.112-.101-.216-.21-.322-.317a3.897 3.897 0 00-.214-.196c-.13-.111-.249-.232-.369-.353a6.022 6.022 0 00-.345-.318c-.332-.29-.592-.644-.849-1l-.043-.058c-.043-.07-.043-.07-.07-.17-.047-.13-.092-.228-.208-.304-.29-.08-.611-.048-.909-.042h-.272c-.215 0-.43.003-.644.006-.384.005-.768.007-1.152.008-.156 0-.313.002-.469.004l-.246.002-.112.003c-.257 0-.475-.039-.671-.215a.755.755 0 01-.128-.606c.067-.19.195-.311.37-.406.15-.046.296-.041.453-.041l.107-.002.351-.002.243-.002.64-.004.654-.005 1.281-.008-.021-.112-.028-.147-.014-.074c-.267-1.416.083-2.901.891-4.085.175-.249.372-.472.583-.69l.049-.05c1.101-1.16 2.671-1.754 4.253-1.804a6.332 6.332 0 012.928.636l.107.052.257.125v-.06l.004-1.425.003-.689.002-.665.001-.254c-.001-.118 0-.237.001-.355v-.106c.003-.222.043-.376.191-.545.239-.187.534-.243.819-.116zm-5.423 4.786l-.129.034a4.827 4.827 0 00-2.854 2.338 4.24 4.24 0 00-.343 2.937l.101.302h7.661l.016-2.287.008-.721.001-.428.003-.285c.002-.122.002-.243.002-.365l.003-.196c.001-.213.001-.213-.091-.398a1.622 1.622 0 00-.211-.158 3.713 3.713 0 00-.25-.166l-.07-.043a5.046 5.046 0 00-1.293-.564l-.072-.02a4.958 4.958 0 00-2.482.02zm7.628 0l-.077.02a4.765 4.765 0 00-1.704.887l-.055.043c-.065.082-.058.14-.058.245l-.001.117.002.13v.138l.001.371v.348l.004 1.017.006 2.295h7.661c.116-.4.116-.4.193-.806l.012-.087c.134-1.007-.168-2.068-.77-2.884a6.855 6.855 0 00-.208-.255l-.074-.088a4.667 4.667 0 00-1.136-.953l-.065-.04c-.412-.246-.852-.4-1.312-.532l-.074-.02c-.717-.197-1.637-.142-2.345.054zm-10.248 6.82c.129.173.253.334.399.49l.053.058c.111.118.225.227.35.33.095.085.184.175.273.265.109.11.218.219.336.32.137.116.262.244.389.372.091.093.184.182.283.266.137.117.262.245.389.373.091.092.184.181.283.265.137.117.262.245.389.373.091.092.184.181.283.266.137.116.262.244.389.372.091.093.184.182.283.266.137.117.262.245.389.373.091.092.184.181.283.265.137.117.262.245.389.373.091.093.184.182.283.266.137.117.262.245.389.373.091.092.184.181.283.265.118.1.227.21.336.32.179.18.358.361.571.503v-6.753h-7.022zm8.332 0v6.754c.214-.157.214-.157.404-.33l.067-.069.067-.069a7.52 7.52 0 01.477-.453c.08-.07.154-.145.229-.221.118-.12.239-.232.367-.341.082-.074.16-.152.237-.23.098-.099.195-.194.301-.284.112-.096.217-.199.321-.304.124-.126.251-.245.386-.36.082-.073.158-.15.236-.228.097-.099.195-.194.3-.284.113-.096.217-.199.321-.304.124-.126.251-.245.386-.36.112-.1.216-.208.322-.315.09-.09.185-.172.281-.254.083-.074.16-.152.238-.23.097-.099.195-.194.3-.284.113-.096.217-.199.321-.304.124-.126.251-.245.386-.36.112-.1.216-.208.322-.315a4.29 4.29 0 01.223-.205c.231-.2.39-.388.564-.65h-7.056zM39.941 46.821h.327l.174-.001h.364l.467-.001a71.787 71.787 0 01.772-.001h.071a.648.648 0 01.392.113c.097.131.113.227.114.389V47.603l.002.155.001.423.002.443.003.837.004.953c.004.653.006 1.307.008 1.96l.073-.088.099-.118.048-.058c.694-.828 1.8-1.238 2.852-1.343.196-.013.392-.014.588-.014h.07c.367 0 .718.02 1.075.11l.072.017a4.644 4.644 0 012.86 2.142c.975 1.689 1.084 3.8.63 5.67a5.657 5.657 0 01-1.177 2.25c-.02.025-.04.05-.062.075-.705.834-1.815 1.366-2.895 1.471a8.045 8.045 0 01-.35.008h-.328c-.43 0-.848-.017-1.27-.109l-.081-.017c-.935-.202-1.757-.667-2.305-1.461l-.033-.067-.002.095a41.507 41.507 0 01-.008.505c0 .074-.002.147-.004.22l-.002.133a.569.569 0 01-.152.323c-.12.083-.244.078-.385.078a17.691 17.691 0 01-.322.002l-.172.001h-.36l-.462.004a46.73 46.73 0 01-.525.002h-.238l-.07.002c-.187-.003-.263-.063-.39-.19-.05-.098-.038-.198-.038-.306v-.076-.255a112.364 112.364 0 00-.001-.69l-.001-.545-.001-1.318v-.62l-.002-2.06v-.536-.134l-.002-2.155a1629.361 1629.361 0 01-.004-3.453 338.881 338.881 0 010-1.598 67.76 67.76 0 01-.001-.672v-.243l-.001-.07a.556.556 0 01.152-.388c.134-.08.272-.077.424-.077zm3.4 7.11c-.36.417-.567.94-.7 1.467l-.017.072c-.185.776-.153 1.714.051 2.482l.019.07c.13.479.35.942.687 1.308l.076.085c.417.444.97.708 1.58.729.732.013 1.346-.12 1.912-.62.76-.751 1.014-1.839 1.037-2.877.004-1.056-.252-2.126-1.01-2.895-.425-.427-1-.675-1.604-.685-.848.002-1.448.248-2.031.864zM94.579 46.817h1.329a71.64 71.64 0 01.771 0h.071c.18.002.317.04.446.17.062.107.06.206.058.327a309.693 309.693 0 010 .331 34665.36 34665.36 0 00.002.692v.546l.001 1.07v.871l.001.25v2.417c0 .698 0 1.395.002 2.092a1414.984 1414.984 0 01.002 3.593 287.722 287.722 0 01.001 1.6 62.751 62.751 0 010 .674v.314c-.003.185-.063.262-.19.388-.099.05-.2.04-.308.04h-.076l-.248.002h-.085l-.449.002-.463.002a52.838 52.838 0 01-.526.003h-.24l-.07.002a.553.553 0 01-.39-.152c-.078-.132-.078-.26-.081-.412l-.002-.07a31.77 31.77 0 01-.01-.365l-.008-.362-.047.067c-.617.89-1.476 1.306-2.524 1.503-.084.015-.167.03-.252.042l-.067.011c-.25.034-.505.03-.758.031l-.243.002a4.463 4.463 0 01-3.064-1.186l-.06-.055c-1.04-.973-1.548-2.344-1.688-3.742a31.05 31.05 0 01-.01-.104c-.103-1.132-.006-2.317.38-3.39l.045-.125c.477-1.255 1.365-2.236 2.593-2.79.6-.256 1.219-.358 1.869-.355h.068c1.179.006 2.415.343 3.268 1.2.128.134.253.269.356.423v-.082a1080.658 1080.658 0 01.011-2.926A288.019 288.019 0 0194 48.094a71.59 71.59 0 01.004-.774v-.118a.496.496 0 01.114-.27c.15-.1.285-.116.462-.115zm-5.04 7.048c-.572.678-.838 1.597-.865 2.474l-.004.121c-.019 1.078.21 2.188.967 2.994.491.487 1.066.688 1.752.697.626-.003 1.175-.165 1.653-.586l.075-.066c.661-.617.96-1.6 1.007-2.482.003-.133.004-.266.003-.399v-.07a4.843 4.843 0 00-.11-1.116c-.007-.024-.012-.048-.018-.073a4.033 4.033 0 00-.42-1.036l-.056-.103c-.312-.527-.811-.886-1.39-1.072-.946-.242-1.919.004-2.594.717zM120.619 46.817h1.329a71.6 71.6 0 01.771 0h.071c.18.002.317.04.446.17.062.107.06.206.059.327v.076c.001.085 0 .17 0 .255l.001.184v.508l.001.546.001 1.07V51.2l.001 2.291c-.001.698 0 1.395.001 2.092a1839.426 1839.426 0 01.003 3.593v1.06 1.457l.001.071c-.004.185-.064.262-.19.388-.1.05-.201.04-.309.04h-.076l-.248.002h-.085l-.449.002-.463.002a52.568 52.568 0 01-.526.003h-.239l-.071.002a.552.552 0 01-.39-.152c-.078-.132-.078-.26-.081-.412l-.002-.07-.005-.217-.004-.148-.009-.362-.047.067c-.618.892-1.484 1.31-2.529 1.505a11.666 11.666 0 01-.313.051c-.251.034-.506.03-.758.031l-.244.002a4.46 4.46 0 01-3.064-1.186l-.059-.055c-1.037-.97-1.552-2.348-1.688-3.742a35.137 35.137 0 01-.012-.114c-.139-1.708.133-3.631 1.269-4.983.812-.934 1.87-1.53 3.111-1.657.169-.009.338-.01.508-.01h.068c1.179.006 2.415.343 3.268 1.2.128.134.253.269.356.423v-.082l.007-1.972.004-.954.004-.832.001-.44.002-.415.001-.152c-.001-.069 0-.138.001-.207v-.118a.503.503 0 01.114-.27c.151-.1.285-.116.462-.115zm-5.055 7.068c-.749.898-.928 2.15-.827 3.28.098.967.42 1.857 1.174 2.507.58.444 1.298.543 2.01.454a2.33 2.33 0 001.161-.561l.075-.066c.66-.616.965-1.593 1.006-2.476.015-.535.018-1.069-.107-1.591l-.017-.072c-.181-.746-.549-1.469-1.205-1.902-1.05-.629-2.436-.52-3.27.427zM65.808 50.755h.108c.115-.002.23-.002.344-.002h.12c.583 0 1.153.017 1.73.11l.094.013c.81.12 1.664.38 2.292.927l.068.054c.513.416.764 1.052.84 1.693a8.136 8.136 0 01.005.45v.345l.001.247.001.742v.35a2249.25 2249.25 0 01.002 1.462v.075l.002 1.214a517.84 517.84 0 01.004 1.946 131.002 131.002 0 010 .899 32.84 32.84 0 01.002.426c-.002.192-.026.298-.152.446-.115.087-.245.077-.384.077a17.739 17.739 0 01-.322.002h-.532c-.155 0-.308.002-.462.003a52.57 52.57 0 01-.525.001h-.238l-.07.002a.56.56 0 01-.39-.152c-.07-.1-.077-.188-.081-.31l-.004-.1-.004-.103-.003-.105-.01-.256-.042.046a2.417 2.417 0 01-.491.398c-1.377.883-3.161 1.07-4.74.731-.887-.206-1.685-.67-2.183-1.451-.488-.806-.556-1.845-.338-2.748.203-.747.683-1.32 1.345-1.71 1.163-.653 2.598-.71 3.892-.863 1.255-.109 1.255-.109 2.302-.738.189-.284.175-.623.116-.947-.084-.329-.244-.596-.532-.782-.728-.352-1.694-.376-2.461-.143-.447.162-.755.416-.958.848a2.395 2.395 0 00-.094.284.542.542 0 01-.217.322c-.103.051-.211.039-.324.04a20.197 20.197 0 01-.345.001h-.091l-.478.002-.493.003a68.546 68.546 0 01-.562.002l-.254.001-.076.001a.56.56 0 01-.4-.151c-.1-.167-.083-.355-.04-.54.012-.049.026-.098.04-.147l.022-.08c.162-.547.462-1.004.85-1.417l.062-.07c.962-1.038 2.713-1.342 4.054-1.348zm2.216 6.101l-.115.063-.111.061c-.499.227-1.098.257-1.633.329-1.267.154-1.267.154-2.303.834-.28.385-.308.831-.238 1.29.076.294.273.534.522.703.702.403 1.699.377 2.465.18.575-.187 1.022-.467 1.317-1.015.23-.505.268-1.07.25-1.618l-.004-.105-.03-.768c-.045-.003-.045-.003-.12.046zM22.427 50.751h.117c1.485.004 3.174.138 4.314 1.21.737.775.737 1.747.734 2.753v.238l-.001.774v.268l-.004 1.111v.359c-.002.387-.003.773-.003 1.16a364.694 364.694 0 01-.004 1.86 101.051 101.051 0 01-.002.859v.406c-.002.143-.011.24-.102.354-.137.127-.255.121-.433.122h-.074l-.245.001h-.17l-.357.001-.457.002a82.322 82.322 0 01-.755.002l-.07.001a.518.518 0 01-.35-.114c-.099-.102-.114-.176-.118-.316a105.24 105.24 0 01-.004-.105l-.002-.108-.003-.11-.007-.268-.055.052c-1.127 1.062-2.736 1.3-4.223 1.264-1.06-.043-2.146-.384-2.886-1.174-.68-.764-.77-1.715-.732-2.695.014-.174.05-.338.1-.504l.035-.12c.23-.71.723-1.255 1.378-1.6.99-.497 2.094-.621 3.18-.745l.72-.084.076-.01c1.134-.111 1.134-.111 2.095-.659.2-.26.204-.566.177-.882-.067-.339-.19-.646-.479-.85-.66-.4-1.575-.416-2.314-.258-.467.118-.85.316-1.104.739a5.352 5.352 0 00-.168.437c-.06.167-.115.271-.27.37a1.776 1.776 0 01-.271.017l-.082.001h-.839c-.166 0-.332 0-.497.002a54.295 54.295 0 01-.566.001h-.333c-.193-.003-.271-.058-.402-.19-.14-.281.016-.663.107-.94.321-.915 1.04-1.581 1.896-2.003 1.088-.504 2.269-.633 3.453-.629zm1.67 6.166c-.51.256-1.105.308-1.664.38-1.348.148-1.348.148-2.428.897-.237.335-.285.716-.234 1.118.066.345.236.612.525.811.684.413 1.658.384 2.413.205.544-.14 1.023-.413 1.316-.906.235-.432.31-.877.31-1.363v-.093-.488-.188-.089-.083l-.001-.073a.936.936 0 00-.038-.202c-.086 0-.124.03-.2.074zM104.119 50.755l.081-.001c1.13-.008 1.13-.008 1.643.108l.089.02c.88.202 1.64.582 2.331 1.156l.08.067a3.285 3.285 0 01.466.488c.948 1.156 1.409 2.606 1.417 4.095l.001.12-.001.114-.001.099a.473.473 0 01-.114.259c-.178.115-.331.115-.535.113h-.101a53.214 53.214 0 01-.576 0l-.585-.002h-.68a700.326 700.326 0 01-2.393-.005h-.438l-3.025-.005.045.351.013.1c.091.683.355 1.302.883 1.76.712.525 1.677.614 2.531.489.633-.118 1.271-.44 1.682-.944.051-.075.094-.155.138-.234a.474.474 0 01.185-.178c.103-.013.103-.013.225-.013h1.179a48.458 48.458 0 01.684 0h.123c.152.018.24.07.336.19a.529.529 0 01.02.39 3.572 3.572 0 01-.127.276 5.47 5.47 0 01-.76 1.14l-.084.096c-.714.814-1.655 1.294-2.701 1.54l-.086.02c-.509.114-1.018.137-1.537.135h-.092c-.455-.003-.9-.017-1.347-.112l-.097-.02c-1.038-.222-2.013-.661-2.778-1.411a10.015 10.015 0 00-.149-.142c-.96-.91-1.545-2.33-1.585-3.645l-.002-.15-.001-.083c-.016-1.632.379-3.178 1.54-4.378l.144-.15c.529-.558 1.205-.967 1.92-1.243l.069-.027a5.72 5.72 0 011.97-.383zm-1.688 3.117c-.386.446-.566.942-.62 1.526h5.175a2.61 2.61 0 00-.122-.594l-.027-.079c-.217-.616-.539-1.129-1.143-1.42-1.084-.47-2.432-.297-3.263.567zM79.9 50.722h.07c1.17.003 2.286.244 3.162 1.069.909.934 1.01 2.343 1.011 3.575a150.947 150.947 0 00.001.787 430.562 430.562 0 00.002 1.485 701.895 701.895 0 00.002 2.302 239.681 239.681 0 00.002 1.163 47.549 47.549 0 000 .489v.082c0 .191-.04.3-.17.437-.112.06-.22.055-.343.054h-1.405a68.4 68.4 0 01-.815 0h-.076c-.148-.001-.245-.02-.362-.114-.082-.12-.076-.243-.076-.384v-.076-.255l-.001-.182-.001-.392-.002-.623a976.095 976.095 0 01-.008-2.75l-.001-.518c.07-1.743.07-1.743-.671-3.25-.45-.401-1.047-.463-1.625-.44-.59.043-1.157.209-1.574.65-.541.665-.626 1.545-.624 2.372a110.173 110.173 0 01-.001.569l-.001.612-.003 1.188a697.274 697.274 0 01-.005 2.126v.378a50.983 50.983 0 00-.001.414v.07a1.237 1.237 0 01-.076.424c-.162.157-.298.173-.515.173h-.075l-.248.002H75.3a144.802 144.802 0 01-.823.003 70.291 70.291 0 01-.764.002h-.071a.657.657 0 01-.45-.163c-.082-.102-.078-.203-.079-.328v-.112-.123-.13l-.001-.36v-.386l-.002-.935v-.44l-.002-1.462v-.38-.095l-.002-1.529a820.484 820.484 0 01-.003-2.45 170.533 170.533 0 01-.002-1.133v-.415-.122c.001-.211.007-.344.151-.503.115-.087.243-.078.381-.077a17.256 17.256 0 01.318-.002 95.602 95.602 0 00.526-.001c.151 0 .303 0 .455-.002a51.217 51.217 0 01.518-.002h.235l.07-.001c.165.002.258.05.387.152.095.12.079.272.081.42l.002.082.005.262.004.178.009.435.066-.088a4.3 4.3 0 012.823-1.692l.118-.02c.216-.025.434-.02.65-.02zM34.962 46.825h.076l.251-.001.175-.001a447.01 447.01 0 011.196-.004h.415l.072-.002c.178.002.28.05.413.165.096.115.08.252.08.394v.512l.001.503.001.543.001 1.312v.617l.002 2.05v.666l.003 2.145a1614.069 1614.069 0 01.003 3.437 335.62 335.62 0 010 1.59 73.204 73.204 0 01.001.669v.241l.001.07c-.002.166-.05.26-.152.387-.117.09-.255.077-.397.077h-.34l-.181.001h-.38l-.487.001a77.875 77.875 0 01-.804.001h-.075c-.148 0-.247-.014-.36-.113a.953.953 0 01-.113-.492v-.326l-.001-.182v-.498-.537a527.503 527.503 0 010-1.908v-.123-.247-2.318-1.99-2.31-.247-.122-.854a451.534 451.534 0 010-2.059v-.176-.239-.134c.017-.165.057-.305.181-.421.138-.078.264-.077.418-.077zM29.966 46.813h.5a48.198 48.198 0 00.83.002h.53l.24.002h.072c.154.002.259.034.39.114.133.147.14.286.14.476v1.548a1543.88 1543.88 0 01.002 1.915v2.697l.002 2.13.002 2.184v1.227a520.012 520.012 0 01.001 2.067 34.692 34.692 0 000 .417v.069a.86.86 0 01-.113.424c-.132.115-.266.115-.434.114h-.08c-.086.002-.172.001-.259.001h-.56c-.161 0-.323 0-.484.002a51.668 51.668 0 01-.553 0 18.97 18.97 0 01-.324.001.539.539 0 01-.397-.152c-.073-.137-.077-.266-.076-.418v-.076-.253-.685l-.001-.541v-1.062-.862-.124l-.001-.249a3033.426 3033.426 0 010-4.476 1784.617 1784.617 0 01-.002-3.428 458.932 458.932 0 010-2.075v-.178-.24-.07a.513.513 0 01.113-.35c.15-.126.271-.153.462-.15zM59.946 50.88c.105.13.105.2.106.368a14.204 14.204 0 01.002.289v.077c.002.133.002.267.002.4 0 .139.002.277.003.415l.002.319v.152a13.874 13.874 0 01.002.337.59.59 0 01-.15.313c-.113.083-.218.075-.354.072a49.196 49.196 0 00-.2-.003c-.9-.016-1.83.04-2.545.656-.06.048-.06.048-.131.08-.08.045-.094.087-.13.17l-.106.126c-.636.81-.707 1.885-.706 2.872v.944l-.001.084v.17c-.002.378-.003.757-.003 1.136a164.922 164.922 0 01-.002 1.177 40.399 40.399 0 010 .521c.002.36.002.36-.098.504-.175.112-.298.135-.508.136h-.313l-.166.001h-.35l-.448.001a66.125 66.125 0 01-.74.001h-.133a.754.754 0 01-.421-.164c-.078-.103-.076-.203-.076-.327v-.112-.123a54.505 54.505 0 01-.001-.49l-.001-.386-.001-.935v-.44a1782.333 1782.333 0 01-.002-1.842v-.095c0-.51-.002-1.02-.003-1.529a820.484 820.484 0 01-.003-2.45 170.546 170.546 0 01-.001-1.133v-.415l-.001-.122c.002-.212.008-.345.152-.504.115-.087.246-.077.385-.077h.076l.248-.001.172-.001h.361l.463-.002a52.837 52.837 0 01.527-.002h.239l.071-.002c.114.002.17.01.26.082.085.111.092.173.091.312v.35l-.001.387v.261l-.002.642h.067l.009-.071c.174-.694.951-1.325 1.534-1.682.625-.372 2.15-1.01 2.825-.448zM137.856 44.995c.316.336.432.738.425 1.194-.017.426-.199.772-.484 1.084-.385.353-.836.424-1.337.403-.317-.025-.571-.178-.813-.375l-.065-.051c-.298-.263-.449-.68-.479-1.067-.013-.393.11-.75.342-1.066l.069-.099c.229-.267.645-.477.996-.505.53-.007.956.113 1.346.482zm-1.739.088a1.197 1.197 0 00-.584.806c-.053.329.02.638.215.908.191.235.436.413.739.47.369.034.691-.041.982-.28.256-.242.398-.541.412-.896-.014-.342-.133-.587-.369-.832-.301-.268-.567-.327-.958-.32a.835.835 0 00-.437.144z" fill="#121213"/><path d="M136.151 45.352l.424-.008.132-.004c.361-.004.361-.004.519.146.104.106.115.186.115.332-.004.18-.025.277-.149.408h-.067l.059.115.075.15.039.075.037.073.034.067c.025.057.025.057.025.124h-.37l-.049-.101-.068-.132-.032-.067c-.067-.127-.067-.127-.189-.192-.083-.012-.083-.012-.199-.012v.504h-.336v-1.478zm.336.269v.437c.223.02.223.02.424-.055.06-.104.066-.163.046-.281-.074-.073-.118-.1-.221-.111l-.09.004-.159.006z" fill="#121213"/></svg>