<svg width="728" height="90" viewBox="0 0 728 90" fill="none" xmlns="http://www.w3.org/2000/svg"><path d="M210.894 37.686c-.43 0-.804-.032-1.121-.095a4.788 4.788 0 01-.703-.19v-1.805h1.292c.431 0 .792-.07 1.083-.209.292-.14.532-.33.722-.57.203-.24.368-.513.494-.817l-4.408-10.013h3.021l1.881 4.693c.102.215.209.488.323.817.114.317.228.646.342.988.127.33.228.627.304.893h.133c.038-.114.089-.279.152-.494.064-.215.14-.456.228-.722l.266-.798c.102-.266.19-.5.266-.703l1.634-4.674h2.907l-3.781 9.31a17.62 17.62 0 01-.836 1.767 5.925 5.925 0 01-.988 1.387 3.736 3.736 0 01-1.349.912c-.519.215-1.14.323-1.862.323zm15.36-3.458c-1.204 0-2.23-.19-3.078-.57-.849-.393-1.501-.975-1.957-1.748-.444-.773-.665-1.748-.665-2.926 0-1.178.221-2.153.665-2.926a4.203 4.203 0 011.957-1.729c.848-.38 1.874-.57 3.078-.57 1.203 0 2.229.19 3.078.57.861.38 1.513.956 1.957 1.729.456.773.684 1.748.684 2.926 0 1.178-.228 2.153-.684 2.926-.444.773-1.096 1.355-1.957 1.748-.849.38-1.875.57-3.078.57zm0-2.109c.633 0 1.159-.114 1.577-.342.418-.228.728-.557.931-.988.215-.43.323-.963.323-1.596v-.399c0-.633-.108-1.165-.323-1.596a2.022 2.022 0 00-.931-.988c-.418-.228-.944-.342-1.577-.342-.634 0-1.159.114-1.577.342a2.018 2.018 0 00-.931.988c-.203.43-.304.963-.304 1.596v.399c0 .633.101 1.165.304 1.596.202.43.513.76.931.988.418.228.943.342 1.577.342zm11.505 2.109c-1.216 0-2.153-.304-2.812-.912-.658-.62-.988-1.59-.988-2.907v-6.422h2.812v5.966c0 .355.045.659.133.912.089.253.222.462.399.627.178.152.393.266.646.342.254.076.539.114.855.114a2.66 2.66 0 001.273-.304c.393-.203.703-.488.931-.855.228-.367.342-.779.342-1.235v-5.567h2.812V34h-2.28l-.209-1.539h-.152a3.931 3.931 0 01-1.045 1.007 4.552 4.552 0 01-1.292.57c-.456.127-.931.19-1.425.19zM251.513 34V23.987h2.299l.209 1.539h.152a4.064 4.064 0 011.045-.988 4.318 4.318 0 011.273-.589 5.51 5.51 0 011.444-.19c.811 0 1.495.14 2.052.418.57.266 1.001.684 1.292 1.254.304.557.456 1.273.456 2.147V34h-2.812v-5.966c0-.355-.05-.659-.152-.912a1.37 1.37 0 00-.399-.608 1.608 1.608 0 00-.646-.361 2.97 2.97 0 00-.855-.114c-.468 0-.893.108-1.273.323-.38.203-.69.481-.931.836-.228.355-.342.773-.342 1.254V34h-2.812zm15.922.228c-.469 0-.931-.044-1.387-.133a3.84 3.84 0 01-1.216-.418 2.41 2.41 0 01-.855-.893c-.215-.38-.323-.861-.323-1.444 0-.747.184-1.349.551-1.805.38-.456.912-.798 1.596-1.026.684-.24 1.488-.399 2.413-.475.937-.076 1.97-.114 3.097-.114v-.57c0-.342-.076-.627-.228-.855-.152-.24-.393-.418-.722-.532-.317-.114-.741-.171-1.273-.171-.469 0-.868.044-1.197.133-.329.089-.583.209-.76.361a.65.65 0 00-.266.532v.209h-2.774l-.038-.152v-.19c0-.595.196-1.108.589-1.539.405-.443.988-.785 1.748-1.026.773-.24 1.704-.361 2.793-.361 1.064 0 1.957.114 2.679.342.735.228 1.292.583 1.672 1.064.38.481.57 1.108.57 1.881v4.37c0 .228.057.405.171.532.114.114.272.171.475.171h.817v1.786c-.152.05-.386.114-.703.19a3.735 3.735 0 01-1.045.133c-.481 0-.88-.063-1.197-.19a1.669 1.669 0 01-.722-.494 2.361 2.361 0 01-.361-.741h-.133a5.37 5.37 0 01-1.026.76c-.393.215-.836.38-1.33.494a7.177 7.177 0 01-1.615.171zm.836-2.052a4.37 4.37 0 001.064-.133c.355-.101.678-.234.969-.399.304-.177.545-.393.722-.646a1.39 1.39 0 00.285-.855v-.551c-1.039 0-1.919.05-2.641.152-.709.089-1.254.247-1.634.475-.367.228-.551.538-.551.931 0 .253.076.456.228.608.165.14.38.247.646.323.279.063.583.095.912.095zM276.859 34V23.987h2.299l.209 1.539h.152a3.67 3.67 0 01.988-.988c.38-.266.792-.462 1.235-.589.443-.127.893-.19 1.349-.19.785 0 1.45.146 1.995.437.545.279.95.722 1.216 1.33h.152a3.913 3.913 0 011.007-.988c.38-.266.798-.462 1.254-.589.456-.127.918-.19 1.387-.19.76 0 1.406.133 1.938.399.545.266.956.678 1.235 1.235.291.557.437 1.273.437 2.147V34h-2.793v-5.985c0-.355-.044-.659-.133-.912a1.47 1.47 0 00-.38-.608 1.419 1.419 0 00-.589-.342 2.392 2.392 0 00-.76-.114c-.431 0-.823.108-1.178.323-.355.203-.64.481-.855.836-.215.355-.323.773-.323 1.254V34h-2.812v-5.985c0-.355-.044-.659-.133-.912a1.321 1.321 0 00-.361-.608 1.606 1.606 0 00-.589-.342 2.46 2.46 0 00-.779-.114c-.431 0-.83.108-1.197.323-.355.203-.64.481-.855.836-.203.355-.304.773-.304 1.254V34h-2.812zm24.598.228c-1.216 0-2.255-.184-3.116-.551a4.203 4.203 0 01-1.957-1.729c-.443-.773-.665-1.754-.665-2.945 0-1.19.222-2.172.665-2.945.443-.773 1.089-1.349 1.938-1.729.849-.38 1.862-.57 3.04-.57 1.191 0 2.191.19 3.002.57.823.367 1.444.931 1.862 1.691.418.747.627 1.691.627 2.831v.779h-8.246c.038.583.165 1.064.38 1.444.215.38.532.665.95.855.418.177.937.266 1.558.266.291 0 .583-.032.874-.095.304-.076.57-.184.798-.323a1.83 1.83 0 00.589-.532c.152-.215.234-.469.247-.76h2.812c0 .583-.127 1.108-.38 1.577a3.531 3.531 0 01-1.083 1.178c-.469.317-1.032.564-1.691.741a9.094 9.094 0 01-2.204.247zm-2.831-6.327h5.282c0-.367-.063-.678-.19-.931a1.666 1.666 0 00-.532-.646 1.948 1.948 0 00-.779-.38 3.39 3.39 0 00-.988-.133c-.545 0-1.02.076-1.425.228a2.007 2.007 0 00-.931.703c-.228.317-.374.703-.437 1.159zm15.12-5.415v-2.242h2.812v2.242h-2.812zm0 11.514V23.987h2.812V34h-2.812zm9.068.228c-.709 0-1.286-.108-1.729-.323a2.116 2.116 0 01-.988-.95c-.203-.43-.304-.975-.304-1.634v-5.225h-1.596v-2.109h1.672l.551-2.888h2.166v2.888h2.28v2.109h-2.28v4.826c0 .393.082.69.247.893.165.203.475.304.931.304h1.102v1.786a2.647 2.647 0 01-.608.152c-.241.05-.494.089-.76.114a4.648 4.648 0 01-.684.057zm4.147-.228v-2.945h3.154V34h-3.154zm13.172 0l-3.667-10.013h2.983l1.501 4.845a16.018 16.018 0 01.437 1.577c.063.215.107.386.133.513h.133l.171-.646.19-.76c.076-.253.145-.481.209-.684l1.387-4.845h3.04l1.406 4.845c.05.14.107.336.171.589.063.253.126.513.19.779.076.266.139.507.19.722h.133c.05-.19.107-.412.171-.665.063-.253.133-.5.209-.741.076-.253.139-.475.19-.665l1.501-4.864h2.755L349.918 34h-2.831l-1.33-4.522-.247-.817a42.568 42.568 0 00-.228-.874c-.076-.279-.14-.513-.19-.703h-.114c-.038.14-.095.342-.171.608-.064.253-.14.538-.228.855-.076.304-.159.62-.247.95L343.002 34h-2.869zm20.012.228c-1.216 0-2.254-.184-3.116-.551a4.208 4.208 0 01-1.957-1.729c-.443-.773-.665-1.754-.665-2.945 0-1.19.222-2.172.665-2.945.444-.773 1.09-1.349 1.938-1.729.849-.38 1.862-.57 3.04-.57 1.191 0 2.192.19 3.002.57.824.367 1.444.931 1.862 1.691.418.747.627 1.691.627 2.831v.779h-8.246c.038.583.165 1.064.38 1.444.216.38.532.665.95.855.418.177.938.266 1.558.266.292 0 .583-.032.874-.095.304-.076.57-.184.798-.323a1.83 1.83 0 00.589-.532c.152-.215.235-.469.247-.76h2.812c0 .583-.126 1.108-.38 1.577a3.531 3.531 0 01-1.083 1.178c-.468.317-1.032.564-1.691.741a9.088 9.088 0 01-2.204.247zm-2.831-6.327h5.282c0-.367-.063-.678-.19-.931a1.658 1.658 0 00-.532-.646 1.948 1.948 0 00-.779-.38 3.385 3.385 0 00-.988-.133c-.544 0-1.019.076-1.425.228a2.013 2.013 0 00-.931.703c-.228.317-.373.703-.437 1.159zm21.295 6.327a4.923 4.923 0 01-1.995-.399c-.608-.266-1.114-.697-1.52-1.292h-.133L374.733 34h-2.299V20.244h2.812v4.921h.133c.241-.317.532-.576.874-.779a3.805 3.805 0 011.14-.475 5.636 5.636 0 011.33-.152c.887 0 1.666.19 2.337.57.672.367 1.197.937 1.577 1.71.38.773.57 1.754.57 2.945 0 1.19-.19 2.179-.57 2.964-.38.773-.918 1.349-1.615 1.729-.684.367-1.488.551-2.413.551zm-.817-2.261c.583 0 1.058-.108 1.425-.323a1.93 1.93 0 00.836-.931c.19-.418.285-.925.285-1.52v-.38c0-.595-.095-1.096-.285-1.501a1.918 1.918 0 00-.836-.95c-.367-.215-.836-.323-1.406-.323-.43 0-.804.063-1.121.19a2.174 2.174 0 00-.817.57c-.215.24-.38.538-.494.893a4.37 4.37 0 00-.152 1.197v.247c0 .583.095 1.09.285 1.52.19.418.475.741.855.969.393.228.868.342 1.425.342zM385.274 34V23.987h2.299l.209 1.653h.152c.139-.355.329-.671.57-.95.241-.291.538-.52.893-.684a2.811 2.811 0 011.197-.247c.228 0 .437.019.627.057.203.038.374.082.513.133V26.4h-1.121c-.443 0-.823.07-1.14.209a1.864 1.864 0 00-.779.57c-.203.24-.355.532-.456.874a3.68 3.68 0 00-.152 1.083V34h-2.812zm10.949.228c-.468 0-.931-.044-1.387-.133a3.848 3.848 0 01-1.216-.418 2.425 2.425 0 01-.855-.893c-.215-.38-.323-.861-.323-1.444 0-.747.184-1.349.551-1.805.38-.456.912-.798 1.596-1.026.684-.24 1.489-.399 2.413-.475.938-.076 1.97-.114 3.097-.114v-.57c0-.342-.076-.627-.228-.855-.152-.24-.392-.418-.722-.532-.316-.114-.741-.171-1.273-.171-.468 0-.867.044-1.197.133-.329.089-.582.209-.76.361a.65.65 0 00-.266.532v.209h-2.774l-.038-.152v-.19c0-.595.197-1.108.589-1.539.406-.443.988-.785 1.748-1.026.773-.24 1.704-.361 2.793-.361 1.064 0 1.957.114 2.679.342.735.228 1.292.583 1.672 1.064.38.481.57 1.108.57 1.881v4.37c0 .228.057.405.171.532.114.114.273.171.475.171h.817v1.786c-.152.05-.386.114-.703.19a3.735 3.735 0 01-1.045.133c-.481 0-.88-.063-1.197-.19a1.675 1.675 0 01-.722-.494 2.383 2.383 0 01-.361-.741h-.133a5.37 5.37 0 01-1.026.76c-.392.215-.836.38-1.33.494a7.177 7.177 0 01-1.615.171zm.836-2.052c.355 0 .71-.044 1.064-.133.355-.101.678-.234.969-.399.304-.177.545-.393.722-.646a1.39 1.39 0 00.285-.855v-.551c-1.038 0-1.919.05-2.641.152-.709.089-1.254.247-1.634.475-.367.228-.551.538-.551.931 0 .253.076.456.228.608.165.14.38.247.646.323.279.063.583.095.912.095zM405.647 34V23.987h2.299l.209 1.539h.152a4.048 4.048 0 011.045-.988 4.318 4.318 0 011.273-.589 5.51 5.51 0 011.444-.19c.811 0 1.495.14 2.052.418.57.266 1.001.684 1.292 1.254.304.557.456 1.273.456 2.147V34h-2.812v-5.966c0-.355-.051-.659-.152-.912a1.387 1.387 0 00-.399-.608 1.615 1.615 0 00-.646-.361 2.97 2.97 0 00-.855-.114c-.469 0-.893.108-1.273.323-.38.203-.69.481-.931.836-.228.355-.342.773-.342 1.254V34h-2.812zm16.834.228c-.925 0-1.735-.184-2.432-.551-.684-.38-1.216-.956-1.596-1.729-.38-.785-.57-1.773-.57-2.964 0-1.19.19-2.172.57-2.945.38-.773.906-1.343 1.577-1.71.671-.38 1.45-.57 2.337-.57.469 0 .912.05 1.33.152.418.101.798.26 1.14.475.342.203.633.462.874.779h.133v-4.921h2.793V34h-2.28l-.228-1.463h-.133c-.405.595-.912 1.026-1.52 1.292a4.923 4.923 0 01-1.995.399zm.817-2.261c.57 0 1.039-.114 1.406-.342.38-.228.665-.551.855-.969.19-.43.285-.937.285-1.52v-.247c0-.443-.057-.842-.171-1.197a2.238 2.238 0 00-.475-.893 2.005 2.005 0 00-.798-.57c-.317-.127-.69-.19-1.121-.19-.57 0-1.045.108-1.425.323-.38.215-.665.532-.855.95-.177.405-.266.906-.266 1.501v.38c0 .595.095 1.102.285 1.52.19.405.469.716.836.931.38.215.861.323 1.444.323zm12.705-9.481v-2.242h2.812v2.242h-2.812zm0 11.514V23.987h2.812V34h-2.812zm9.068.228c-.71 0-1.286-.108-1.729-.323a2.111 2.111 0 01-.988-.95c-.203-.43-.304-.975-.304-1.634v-5.225h-1.596v-2.109h1.672l.551-2.888h2.166v2.888h2.28v2.109h-2.28v4.826c0 .393.082.69.247.893.164.203.475.304.931.304h1.102v1.786a2.647 2.647 0 01-.608.152c-.241.05-.494.089-.76.114a4.67 4.67 0 01-.684.057zm4.146-.228v-2.945h3.154V34h-3.154z" fill="#323232"/></svg>