<svg width="300" height="600" viewBox="0 0 300 600" fill="none" xmlns="http://www.w3.org/2000/svg"><path d="M229.711 42.18c.254.145.402.362.493.636.005.079.008.157.008.236l.002.147.001.16.001.17.004.556.004.385.007.911c.002.38.006.759.009 1.139l.015 2.03.094-.044.423-.203.147-.071a7.902 7.902 0 011.184-.468c2.43-.761 5.158-.549 7.42.633.817.447 1.528.998 2.201 1.638l.106.096c1.421 1.331 2.301 3.435 2.364 5.367.021.842-.011 1.653-.217 2.473h.085a613.243 613.243 0 013.051.014 180.713 180.713 0 011.326.006l.514.003h.152c.355.005.642.075.907.323.179.288.213.548.16.883-.093.292-.303.469-.563.614-.153.051-.252.058-.411.058h-.524l-.506-.001h-.528a1107.053 1107.053 0 01-2.139-.003l-2.343-.002-.048.122c-.077.189-.183.355-.291.527a6.959 6.959 0 01-.685.938l-.099.116c-.248.282-.51.549-.775.815l-.102.103c-.2.2-.406.388-.619.572-.132.116-.254.24-.376.365a7.657 7.657 0 01-.484.458c-.181.154-.348.32-.515.49a9.408 9.408 0 01-.608.567c-.144.13-.28.267-.416.405a9.408 9.408 0 01-.608.568c-.144.13-.28.267-.416.405a9.408 9.408 0 01-.608.568c-.173.155-.333.321-.496.486a8.77 8.77 0 01-.531.49c-.135.12-.261.248-.387.376a7.985 7.985 0 01-.483.457c-.182.155-.348.32-.516.49a9.408 9.408 0 01-.608.568c-.144.13-.279.267-.416.405a9.408 9.408 0 01-.608.568c-.144.13-.279.267-.416.405a9.408 9.408 0 01-.608.568c-.172.154-.333.32-.495.485a9.96 9.96 0 01-.637.585c-.08.08-.058.156-.059.267l-.001.141v.32l-.002.353-.003.558-.007 1.588-.005.97-.002.37-.002.519v.154c-.004.317-.041.547-.258.793-.297.248-.546.35-.941.316-.357-.071-.564-.27-.768-.563a.985.985 0 01-.057-.38l.001-.139.001-.153.002-.33.001-.178v-.93c0-.395 0-.79.003-1.185.002-.319.002-.638.001-.956 0-.122 0-.243.002-.364.03-.644.03-.644-.156-1.242a1.846 1.846 0 00-.362-.287 8.212 8.212 0 01-.201-.176l-.101-.087a8.315 8.315 0 01-.363-.352 7.137 7.137 0 00-.458-.432 9.226 9.226 0 01-.563-.538 8.39 8.39 0 00-.514-.473c-.171-.153-.33-.318-.491-.482a6.266 6.266 0 00-.329-.302 7.294 7.294 0 01-.461-.435 7.137 7.137 0 00-.458-.432 9.226 9.226 0 01-.563-.538 8.39 8.39 0 00-.514-.474c-.171-.152-.33-.318-.491-.481a6.14 6.14 0 00-.326-.3 9.226 9.226 0 01-.563-.537 8.39 8.39 0 00-.514-.474c-.172-.153-.33-.318-.491-.481a6.16 6.16 0 00-.327-.3 8.928 8.928 0 01-.562-.537 8.124 8.124 0 00-.515-.474c-.171-.153-.329-.318-.491-.481a6.14 6.14 0 00-.326-.3 9.221 9.221 0 01-.563-.537 8.888 8.888 0 00-.524-.485c-.507-.442-.903-.98-1.294-1.523l-.067-.089c-.064-.108-.064-.108-.106-.259-.071-.197-.14-.346-.316-.463-.442-.123-.932-.073-1.386-.064h-.415c-.327 0-.654.004-.981.008-.585.008-1.17.011-1.756.013-.238 0-.475.004-.713.007l-.376.003-.17.004c-.392.001-.724-.06-1.023-.328-.2-.304-.259-.561-.195-.923.102-.29.297-.474.564-.619.229-.07.451-.062.69-.063l.163-.002.535-.003.37-.003.976-.006.995-.008 1.954-.013a31.225 31.225 0 01-.033-.17l-.042-.224a19.673 19.673 0 01-.021-.112c-.407-2.159.125-4.421 1.357-6.226a8.67 8.67 0 01.889-1.05l.074-.078c1.678-1.768 4.069-2.672 6.481-2.748a9.655 9.655 0 014.462.97l.162.078.392.19v-.09c.001-.723.003-1.447.007-2.171l.003-1.05c0-.338.002-.676.004-1.014l.001-.387.003-.542-.002-.16c.006-.339.067-.573.291-.832.364-.284.815-.369 1.248-.176zm-8.262 7.292l-.198.053a7.355 7.355 0 00-4.348 3.56c-.698 1.351-.899 3.002-.523 4.477l.154.46h11.673l.026-3.484.011-1.1.002-.652c.001-.145.002-.29.005-.434.002-.185.003-.37.003-.556 0-.1.002-.199.004-.299.002-.324.002-.324-.138-.606a2.426 2.426 0 00-.322-.241l-.102-.072a5.24 5.24 0 00-.279-.181l-.106-.066a7.705 7.705 0 00-2.081-.89c-1.193-.315-2.593-.295-3.781.031zm11.622 0l-.116.03c-.946.258-1.834.742-2.597 1.352l-.084.066c-.099.125-.089.214-.088.373l-.001.179.002.197v.211l.002.565.001.53c0 .516.003 1.033.005 1.55a45275 45275 0 01.009 3.497h11.674c.177-.61.177-.61.294-1.228l.019-.133c.204-1.534-.257-3.151-1.174-4.395a9.524 9.524 0 00-.317-.388l-.113-.134a7.124 7.124 0 00-1.829-1.513c-.628-.375-1.299-.61-2-.81l-.112-.033c-1.093-.3-2.495-.214-3.575.084zm-15.616 10.394c.197.262.387.508.608.745l.082.088c.169.18.343.346.533.504.145.128.28.266.416.403.166.169.332.334.512.487.209.178.4.373.593.568.139.14.28.276.431.405.209.178.4.372.593.568.139.14.28.276.431.404.209.178.4.373.593.569.139.14.28.276.431.404.209.178.4.373.593.568.139.141.28.277.431.405.209.178.4.373.593.568.139.14.28.276.431.405.209.178.4.373.593.568.139.14.28.276.431.405.209.178.4.372.593.568.139.14.28.276.431.404.18.154.346.319.512.487.273.276.546.552.87.768V59.866h-10.701zm12.698 0v10.29c.326-.238.326-.238.614-.503l.103-.104.102-.106c.235-.24.472-.47.727-.69.122-.107.235-.22.348-.337.181-.182.366-.353.56-.52.126-.112.244-.23.362-.35.148-.15.297-.296.458-.432.171-.147.331-.304.489-.464a9.22 9.22 0 01.588-.548c.125-.111.242-.23.359-.348.149-.15.297-.296.458-.432a7.98 7.98 0 00.49-.464c.189-.192.382-.373.587-.548.171-.153.33-.318.491-.481.138-.136.282-.262.429-.387a8.17 8.17 0 00.361-.35c.149-.15.297-.296.458-.433a7.98 7.98 0 00.49-.464c.189-.191.382-.373.587-.547.171-.153.329-.318.49-.481.111-.109.223-.212.34-.313.353-.304.596-.59.861-.988h-10.752zM90.051 77.823l.117-.001h.38l.265-.001h.556c.237 0 .474 0 .71-.002a111.102 111.102 0 01.81-.002h.476a.986.986 0 01.596.173c.15.2.173.346.174.592l.001.1v.331l.002.238.003.645a493.089 493.089 0 01.008 1.95l.006 1.451c.004.996.008 1.992.01 2.988l.113-.135.15-.18.073-.089c1.058-1.26 2.743-1.886 4.347-2.045.298-.02.597-.021.895-.022h.107c.558.001 1.094.03 1.638.167l.11.027a7.077 7.077 0 014.357 3.264c1.486 2.573 1.652 5.79.96 8.638a8.63 8.63 0 01-1.792 3.43l-.095.114c-1.075 1.271-2.765 2.082-4.411 2.242-.139.006-.277.01-.416.01l-.117.002-.373.001h-.128c-.656-.001-1.292-.027-1.936-.167l-.123-.025c-1.424-.308-2.677-1.017-3.512-2.227l-.05-.103-.002.146a64.254 64.254 0 01-.013.769c0 .112-.003.224-.006.335l-.003.203c-.033.216-.094.326-.233.493-.183.125-.371.118-.585.118l-.115.001-.376.002-.262.002-.55.001c-.234 0-.468.002-.702.005l-.542.002-.259.001c-.12.002-.242.002-.362.001l-.108.002c-.284-.004-.4-.095-.593-.289-.076-.15-.059-.302-.058-.467v-.116l-.001-.389a30228.476 30228.476 0 01-.001-1.05l-.002-.832-.001-2.008-.001-.945-.002-3.14v-.815-.204l-.004-3.285a2364.62 2364.62 0 01-.005-5.261 541.007 541.007 0 01-.002-2.434 111.06 111.06 0 010-1.026v-.37l-.001-.107c.003-.252.074-.396.231-.59.205-.123.415-.118.647-.117zm5.18 10.834c-.55.635-.863 1.43-1.065 2.236l-.028.109c-.28 1.182-.232 2.612.08 3.782l.027.108c.2.728.534 1.433 1.047 1.991l.117.13a3.443 3.443 0 002.408 1.111c1.115.02 2.05-.183 2.912-.945 1.158-1.144 1.545-2.802 1.581-4.383.006-1.61-.385-3.24-1.539-4.412a3.545 3.545 0 00-2.445-1.043c-1.293.002-2.207.377-3.095 1.316zM173.308 77.817l.117-.001h1.199c.237.002.473.001.71 0a99.737 99.737 0 01.808 0h.475c.274.004.483.062.68.259.094.164.09.314.089.499v.505l.001.28.001.773c-.001.277 0 .555.001.833l.001 1.632.001 1.326v.573l.001 3.49c-.001 1.063 0 2.126.002 3.188.002 1.194.003 2.387.002 3.58 0 .632 0 1.264.002 1.896v1.614l.001.824c.001.251 0 .502-.001.754l.001.273c.001.123 0 .247-.001.37l.002.108c-.005.282-.098.399-.29.591-.151.076-.305.06-.471.06l-.115.001-.378.002-.13.001-.684.002-.705.005-.542.002-.26.001c-.122.002-.243.002-.365.001l-.108.002c-.254-.003-.398-.072-.594-.231-.119-.201-.118-.397-.124-.628l-.003-.106-.007-.331-.006-.226-.014-.552-.071.103c-.941 1.355-2.249 1.99-3.846 2.29-.127.023-.255.045-.383.065l-.103.016c-.382.052-.769.046-1.155.047l-.37.004a6.798 6.798 0 01-4.76-1.892c-1.587-1.483-2.359-3.571-2.572-5.702l-.018-.159c-.155-1.725-.008-3.53.581-5.166l.068-.19c.727-1.911 2.08-3.407 3.952-4.25.913-.39 1.857-.546 2.847-.542h.105c1.795.01 3.679.522 4.978 1.83.195.203.386.408.543.644v-.125l.012-3.006.005-1.454c.001-.422.003-.845.006-1.267l.002-.67c0-.211.001-.422.003-.632l.001-.232c-.001-.106 0-.211.001-.317l.001-.179a.76.76 0 01.173-.413c.23-.152.435-.175.704-.173zm-7.679 10.74c-.872 1.033-1.278 2.433-1.319 3.77l-.006.184c-.028 1.642.319 3.334 1.474 4.561.748.742 1.625 1.05 2.67 1.062.953-.004 1.791-.251 2.518-.892l.115-.1c1.008-.94 1.462-2.44 1.534-3.782.005-.203.006-.405.005-.608v-.108c-.002-.578-.035-1.137-.169-1.7l-.026-.111a6.14 6.14 0 00-.64-1.579l-.086-.156c-.475-.804-1.236-1.351-2.117-1.634-1.442-.37-2.925.005-3.953 1.093zM212.988 77.817l.117-.001h1.199c.237.002.473.001.71 0a99.737 99.737 0 01.809 0h.474c.274.004.483.062.68.259.095.164.09.314.089.499v.505l.001.28.001.773.001.833.001 1.632.001 1.326v.573l.001 3.49c-.001 1.063 0 2.126.002 3.188.002 1.194.003 2.387.002 3.58l.002 1.896v1.614l.001.824c.001.251 0 .502-.001.754l.001.273c.001.123 0 .247-.001.37l.002.108c-.005.282-.098.399-.29.591-.151.076-.305.06-.471.06l-.115.001-.378.002-.13.001-.684.002-.705.005-.542.002-.26.001c-.122.002-.243.002-.365.001l-.107.002c-.255-.003-.399-.072-.595-.231-.118-.201-.118-.397-.124-.628l-.003-.106-.007-.331-.006-.226-.014-.552-.07.103c-.943 1.359-2.263 1.996-3.854 2.293a16.354 16.354 0 01-.478.078c-.383.052-.77.046-1.155.047l-.371.004a6.798 6.798 0 01-4.67-1.808l-.09-.084c-1.58-1.477-2.365-3.578-2.572-5.702l-.018-.174c-.212-2.603.202-5.533 1.935-7.593 1.236-1.423 2.848-2.33 4.739-2.524.258-.014.515-.017.774-.016h.105c1.795.01 3.68.522 4.978 1.83.195.203.386.408.543.644v-.125l.012-3.006.005-1.454c.002-.422.003-.845.006-1.267l.002-.67c0-.211.001-.422.003-.632l.001-.232.001-.317.001-.179a.76.76 0 01.173-.413c.231-.152.435-.175.704-.173zm-7.702 10.77c-1.141 1.368-1.415 3.276-1.261 4.997.151 1.475.641 2.83 1.789 3.82.884.678 1.979.829 3.063.692a3.544 3.544 0 001.769-.855l.115-.1c1.006-.938 1.47-2.428 1.532-3.773.024-.814.028-1.628-.162-2.424l-.026-.11c-.276-1.136-.837-2.238-1.837-2.898-1.599-.958-3.711-.792-4.982.651zM129.467 83.817l.165-.001.524-.002h.181c.89 0 1.758.026 2.639.167l.141.02c1.236.184 2.537.578 3.494 1.413.034.027.068.055.104.082.781.635 1.163 1.604 1.278 2.58.007.176.008.352.008.528v.158l.001.526.001.377.002 1.13.001.532.002 1.77V93.671l.004 1.849.002 1.899.002 1.066c.002.334.002.668.001 1.002l.001.368a41.9 41.9 0 010 .501l.002.148c-.003.294-.04.454-.232.68-.175.133-.373.118-.585.117l-.115.001-.376.002-.262.001h-.549c-.235 0-.469.002-.703.003-.181.002-.361.002-.541.002l-.26.001h-.362l-.108.002c-.254-.003-.397-.074-.593-.231-.107-.153-.117-.287-.124-.472l-.006-.152-.004-.157-.006-.16-.014-.39a3.645 3.645 0 01-.713.612l-.1.064c-2.098 1.345-4.817 1.63-7.222 1.114-1.354-.314-2.569-1.022-3.327-2.212-.744-1.228-.847-2.81-.516-4.187.309-1.139 1.042-2.01 2.051-2.606 1.771-.994 3.958-1.082 5.929-1.314 1.913-.166 1.913-.166 3.508-1.126.288-.432.267-.949.178-1.442-.13-.5-.372-.91-.812-1.192-1.108-.537-2.581-.573-3.75-.217-.681.246-1.151.633-1.46 1.29a3.494 3.494 0 00-.143.435.826.826 0 01-.33.49c-.157.078-.322.059-.494.06a46.641 46.641 0 01-.526.003h-.139l-.728.002-.752.005a92.536 92.536 0 01-.855.004h-.388l-.115.002c-.261-.002-.41-.065-.611-.23-.151-.255-.125-.541-.061-.823l.061-.224.034-.12c.248-.835.704-1.532 1.297-2.161l.094-.106c1.464-1.582 4.133-2.046 6.177-2.055zm3.377 9.297l-.176.096-.169.093c-.76.346-1.672.392-2.489.5-1.929.235-1.929.235-3.508 1.272-.428.587-.47 1.267-.363 1.967.115.447.416.813.795 1.07 1.071.614 2.589.574 3.757.275.876-.286 1.558-.712 2.007-1.547.349-.77.408-1.632.38-2.466l-.006-.16c-.013-.39-.029-.78-.045-1.17-.069-.005-.069-.005-.183.07zM63.363 83.811h.177c2.263.006 4.838.211 6.575 1.843 1.123 1.182 1.122 2.663 1.118 4.196v.362l-.002 1.18v.408l-.005 1.694-.002.437v.11c-.002.589-.003 1.177-.003 1.766 0 .606-.002 1.212-.004 1.817l-.002 1.02a138.622 138.622 0 01-.003 1.307c0 .16 0 .319-.002.479l.002.14c-.004.218-.017.365-.155.54-.21.193-.39.184-.66.185h-.114l-.373.002-.259.001-.544.001-.696.003-.535.001-.257.001-.359.001-.107.001a.79.79 0 01-.533-.173c-.15-.156-.174-.269-.18-.483a49.895 49.895 0 01-.005-.159l-.004-.165-.005-.167a39.644 39.644 0 01-.01-.409l-.084.08c-1.718 1.618-4.168 1.981-6.435 1.925-1.615-.065-3.27-.585-4.398-1.788-1.037-1.165-1.174-2.614-1.116-4.108.022-.264.076-.514.154-.768l.053-.181c.35-1.084 1.102-1.914 2.1-2.44 1.507-.757 3.19-.945 4.844-1.134l1.098-.128.117-.014c1.728-.171 1.728-.171 3.191-1.006.306-.395.311-.862.27-1.343-.101-.517-.29-.985-.729-1.296-1.006-.609-2.4-.634-3.526-.392-.712.178-1.295.48-1.683 1.125-.098.218-.179.44-.256.665-.091.256-.175.414-.41.563-.145.02-.27.029-.414.028l-.125.001h-.405l-.282.001h-.592c-.253-.001-.505 0-.757.002h-.584c-.093 0-.186 0-.28.002l-.39-.001-.116.001c-.294-.005-.413-.088-.612-.29-.214-.428.023-1.01.163-1.433.49-1.393 1.584-2.409 2.889-3.05 1.658-.77 3.457-.966 5.262-.96zm2.544 9.395c-.778.391-1.684.47-2.535.58-2.055.225-2.055.225-3.7 1.366-.362.512-.434 1.091-.357 1.705.101.526.36.932.8 1.236 1.043.628 2.527.584 3.677.312.83-.213 1.558-.63 2.006-1.382.357-.658.472-1.335.47-2.077v-.141-.294-.45-.286l.001-.135v-.127-.11a1.43 1.43 0 00-.058-.309c-.132 0-.19.047-.304.112zM187.845 83.817l.124-.001c1.722-.012 1.722-.012 2.504.165l.135.03a8.343 8.343 0 013.551 1.762l.124.1c.24.203.446.425.644.668.022.025.043.05.064.077 1.445 1.762 2.148 3.97 2.16 6.24l.002.184-.002.172-.001.151a.72.72 0 01-.175.395c-.27.176-.503.175-.814.172h-.154l-.511-.001h-.366l-.892-.001c-.345-.002-.691-.002-1.037-.002a1142.567 1142.567 0 01-3.646-.006h-.668l-4.609-.008.069.535.019.152c.138 1.04.542 1.984 1.346 2.681 1.085.802 2.555.936 3.857.746.965-.18 1.937-.669 2.563-1.438.078-.115.143-.236.21-.356a.728.728 0 01.281-.272c.157-.02.157-.02.344-.02l.103-.001h1.694a87.12 87.12 0 01.717 0h.325l.187.001a.687.687 0 01.512.288c.087.2.096.385.031.596-.043.105-.09.206-.14.307l-.055.113a8.251 8.251 0 01-1.158 1.736 9.753 9.753 0 01-.127.148c-1.088 1.241-2.522 1.971-4.116 2.345l-.131.032c-.776.174-1.55.208-2.342.205h-.14c-.694-.003-1.371-.024-2.052-.17l-.149-.03c-1.582-.339-3.067-1.008-4.232-2.15-.075-.074-.152-.146-.228-.217-1.461-1.388-2.355-3.55-2.415-5.555l-.003-.229-.001-.125c-.024-2.487.577-4.843 2.347-6.671l.218-.23c.807-.85 1.838-1.472 2.927-1.893l.104-.041c.948-.36 1.987-.578 3.002-.584zm-2.572 4.75c-.589.68-.863 1.436-.944 2.326h7.885a3.955 3.955 0 00-.186-.906l-.041-.12c-.33-.94-.821-1.72-1.741-2.165-1.653-.717-3.707-.45-4.973.864zM150.94 83.766h.108c1.783.006 3.483.373 4.817 1.63 1.385 1.424 1.54 3.57 1.541 5.447l.001.324.001.876.001.548.001 1.714c0 .66.001 1.319.003 1.978l.001 1.53.002.915v.857l.001.315v.43l.001.126c-.003.291-.062.457-.26.666-.171.09-.335.083-.523.082l-.123.001-.402-.001-.28.001-.586-.001c-.25-.001-.5 0-.75.001h-.855l-.387-.001-.115.001c-.226-.003-.375-.03-.552-.175-.125-.183-.117-.371-.116-.585l-.001-.117v-.387l-.001-.277-.001-.599-.003-.95c-.003-.672-.004-1.346-.006-2.019-.002-.724-.003-1.448-.006-2.171a206.72 206.72 0 01-.002-.788c.106-2.656.106-2.656-1.023-4.952-.685-.612-1.595-.706-2.476-.671-.9.066-1.763.318-2.398.99-.824 1.013-.954 2.355-.951 3.614l-.001.278-.001.59-.002.933-.004 1.81-.005 2.312-.002.928-.001.576v.266l-.001.364.001.106a1.88 1.88 0 01-.117.647c-.246.24-.454.264-.784.264l-.115.001-.377.001-.262.001-.55.001-.704.003a98.286 98.286 0 01-.802.003h-.363l-.108.002a1.007 1.007 0 01-.687-.25c-.123-.156-.118-.31-.119-.5v-.17-.188l-.001-.198-.001-.547-.001-.59-.002-1.424-.001-.67-.002-2.229v-.578-.145c0-.777-.002-1.553-.003-2.33l-.003-2.39-.002-1.343-.001-1.144-.001-.583v-.632l-.001-.187c.002-.321.011-.524.231-.767.175-.132.37-.117.58-.117l.114-.001.371-.001.259-.001.542-.001.693-.003a79.669 79.669 0 01.79-.003h.358l.106-.002c.253.004.395.076.59.232.145.184.121.414.124.639l.003.126.008.4.006.27.013.664.102-.135c1.076-1.414 2.536-2.302 4.301-2.579l.18-.029c.328-.039.661-.032.991-.032zM82.463 77.829l.117-.001.382-.002h.266l.559-.001.714-.003a100.724 100.724 0 01.813-.003h.37l.109-.002c.271.002.426.076.629.25.147.176.123.384.122.6v.502l.001.279.001.768.001.827.002 1.998.001.94.002 3.125V88.121c0 1.09.002 2.179.004 3.268a2498.51 2498.51 0 01.004 5.237 535.803 535.803 0 01.002 2.422 109.971 109.971 0 01.001 1.02v.368l.001.107c-.004.252-.076.395-.232.59-.179.138-.388.117-.604.116l-.122.001-.397.001h-.855l-.741.002-.57.001-.274.001-.382-.001-.114.001c-.226-.002-.376-.023-.549-.173a1.454 1.454 0 01-.173-.751v-.115-.38-1.037-.818a714.493 714.493 0 010-2.907v-.188l-.001-.376v-3.533c.002-1.01.001-2.021 0-3.032v-3.52-.375-.187-1.302a698.967 698.967 0 010-2.396 140.752 140.752 0 010-1.009l.001-.364v-.205c.026-.25.086-.464.276-.641.21-.118.402-.117.636-.117zM74.85 77.811h.762c.185 0 .37 0 .554.002h.71a90.714 90.714 0 01.809.001l.366.002h.108c.235.003.395.052.596.174.203.224.212.436.211.726v.498l.001.277a645.5 645.5 0 01.001 1.583 2151.61 2151.61 0 01.002 2.918l.002 3.103V88.102c0 1.082 0 2.163.002 3.245a3358.862 3358.862 0 01.003 5.2 704.195 704.195 0 01.001 2.404 141.855 141.855 0 010 1.013 37.143 37.143 0 01.002.472c-.003.253-.06.424-.174.646-.201.175-.405.175-.661.174l-.121.001h-.396l-.275.001h-.578c-.246-.001-.492 0-.738.002l-.57.001-.272.001-.38-.001-.114.001a.818.818 0 01-.606-.232c-.11-.209-.117-.406-.115-.637v-.116a70.583 70.583 0 01-.001-.663v-.766-.825a1245.244 1245.244 0 01-.002-2.931v-.189-.38-3.56l-.001-3.26a3107.97 3107.97 0 01-.002-5.224 710.49 710.49 0 010-2.415 142.965 142.965 0 010-1.018v-.367l-.001-.107a.782.782 0 01.174-.53c.228-.193.412-.235.703-.23zM120.534 84.006c.16.2.161.308.163.562l.001.103.002.338v.117l.003.611c0 .21.002.42.004.63l.002.487.002.232.001.326.001.187c-.031.205-.103.316-.23.478-.17.126-.331.113-.538.109l-.2-.003-.105-.002c-1.372-.023-2.788.062-3.878 1-.092.073-.092.073-.2.122-.123.068-.142.132-.199.259a7.744 7.744 0 01-.16.192c-.969 1.233-1.078 2.872-1.076 4.376v.693l-.002.746v.127l-.001.259c-.002.577-.003 1.155-.003 1.732a459.662 459.662 0 01-.003 1.794c0 .194 0 .387-.002.581l.001.213c.004.547.004.547-.148.768-.268.17-.455.205-.774.206l-.112.001-.365.001h-.254a154.59 154.59 0 00-1.215.002l-.526.001-.251.001-.352-.001h-.202a1.146 1.146 0 01-.642-.249c-.118-.158-.115-.31-.115-.5l-.001-.17v-.187l-.001-.199v-.547l-.002-.59-.002-1.424v-.67l-.002-2.229-.001-.578v-.145c0-.777-.001-1.553-.003-2.33l-.003-2.39c0-.448 0-.896-.002-1.343l-.001-1.144c.001-.194 0-.388-.001-.583-.001-.21 0-.421.001-.632l-.002-.187c.002-.321.011-.524.231-.767.176-.133.375-.117.587-.117h.116a52.641 52.641 0 01.64-.003h.551c.235 0 .47-.002.705-.004a89.35 89.35 0 01.803-.003h.364l.108-.002c.173.003.259.016.397.125.129.17.139.264.138.475v.349l-.001.186-.001.588-.001.398-.002.978h.102l.014-.108c.265-1.058 1.45-2.02 2.338-2.564.952-.567 3.277-1.537 4.304-.682zM239.254 75.04c.481.511.659 1.125.647 1.819-.025.65-.302 1.176-.738 1.653-.587.537-1.273.645-2.036.614-.484-.039-.871-.272-1.24-.572l-.099-.078c-.454-.4-.683-1.036-.729-1.625-.02-.6.168-1.144.521-1.625l.106-.15c.348-.408.982-.727 1.516-.77.809-.011 1.458.172 2.052.734zm-2.65.134l-.106.064a1.829 1.829 0 00-.785 1.164c-.079.501.031.972.328 1.384.291.358.665.629 1.126.716.564.051 1.054-.063 1.496-.425.391-.37.608-.826.629-1.367-.022-.52-.202-.894-.563-1.268-.459-.408-.863-.498-1.46-.487a1.273 1.273 0 00-.665.22z" fill="#121213"/><path d="M236.656 75.584l.646-.013.202-.005c.549-.006.549-.006.79.223.158.161.176.282.176.505-.006.274-.039.422-.227.621h-.103l.09.176.115.227.059.116.056.111.052.102c.038.087.038.087.038.19h-.563l-.075-.155-.104-.2a3.323 3.323 0 01-.049-.103c-.102-.193-.102-.193-.288-.293-.126-.018-.126-.018-.303-.017v.768h-.512v-2.253zm.512.41v.665c.34.03.34.03.646-.083.091-.158.101-.25.07-.429-.112-.11-.179-.15-.336-.168l-.137.005-.243.01z" fill="#121213"/></svg>