<svg width="212" height="36" viewBox="0 0 212 36" fill="none" xmlns="http://www.w3.org/2000/svg"><rect width="212" height="36" rx="18" fill="#685FEF"/><path d="M40.268 23.168c-.532 0-1.04-.056-1.526-.168a4.222 4.222 0 01-1.288-.546 2.867 2.867 0 01-.882-.924c-.215-.373-.322-.812-.322-1.316v-.168a.833.833 0 00.014-.126h1.834a.846.846 0 01-.014.112v.126c0 .308.089.574.266.798.178.215.434.383.77.504.336.112.733.168 1.19.168a5.2 5.2 0 00.812-.056c.243-.037.448-.089.616-.154.178-.075.322-.159.434-.252a.892.892 0 00.238-.336.924.924 0 00.084-.392.938.938 0 00-.252-.672 1.989 1.989 0 00-.686-.448 6.498 6.498 0 00-.966-.322 58.267 58.267 0 00-1.106-.308 11.795 11.795 0 01-1.106-.364 5.049 5.049 0 01-.966-.532 2.32 2.32 0 01-.672-.77c-.168-.317-.252-.695-.252-1.134 0-.448.093-.84.28-1.176a2.37 2.37 0 01.812-.826 3.828 3.828 0 011.232-.49 6.534 6.534 0 011.526-.168c.514 0 .994.056 1.442.168.457.103.859.27 1.204.504.346.224.616.513.812.868.196.345.294.76.294 1.246v.168h-1.806v-.14c0-.27-.084-.5-.252-.686-.158-.187-.387-.331-.686-.434a3.057 3.057 0 00-1.022-.154c-.42 0-.78.042-1.078.126-.299.075-.527.191-.686.35a.737.737 0 00-.238.56c0 .233.084.43.252.588.168.159.392.294.672.406a9.1 9.1 0 00.966.308c.364.093.733.196 1.106.308.383.103.752.224 1.106.364.364.14.686.317.966.532.29.205.518.462.686.77.168.308.252.677.252 1.106 0 .719-.177 1.297-.532 1.736-.345.439-.826.756-1.442.952-.606.196-1.302.294-2.086.294zm5.6-.168V12.878h1.708v3.598h.098a2.631 2.631 0 011.288-.868c.28-.093.588-.14.924-.14.467 0 .877.084 1.232.252.364.168.649.439.854.812.205.373.308.873.308 1.498V23h-1.722v-4.662c0-.261-.033-.476-.098-.644a.883.883 0 00-.266-.42.935.935 0 00-.42-.238 2.09 2.09 0 00-.56-.07c-.308 0-.588.075-.84.224-.243.15-.439.355-.588.616-.14.261-.21.565-.21.91V23h-1.708zm11.452.168c-.803 0-1.475-.135-2.016-.406a2.692 2.692 0 01-1.218-1.274c-.27-.57-.406-1.293-.406-2.17 0-.887.135-1.61.406-2.17.27-.57.677-.99 1.218-1.26.541-.28 1.213-.42 2.016-.42.812 0 1.484.14 2.016.42.541.27.947.69 1.218 1.26.27.56.406 1.283.406 2.17 0 .877-.136 1.6-.406 2.17-.27.57-.677.994-1.218 1.274-.532.27-1.204.406-2.016.406zm0-1.4c.448 0 .807-.084 1.078-.252.28-.177.48-.439.602-.784.13-.355.196-.793.196-1.316v-.196c0-.523-.066-.957-.196-1.302-.121-.355-.322-.616-.602-.784-.27-.177-.63-.266-1.078-.266-.448 0-.812.089-1.092.266-.27.168-.471.43-.602.784-.121.345-.182.78-.182 1.302v.196c0 .523.06.961.182 1.316.13.345.331.607.602.784.28.168.644.252 1.092.252zm5.091 3.654v-9.786h1.414l.14.98h.098c.243-.383.56-.667.952-.854a2.87 2.87 0 011.302-.294c.607 0 1.125.135 1.554.406.439.27.775.69 1.008 1.26.243.57.364 1.302.364 2.198 0 .877-.121 1.6-.364 2.17-.243.57-.579.99-1.008 1.26-.42.27-.905.406-1.456.406a3.58 3.58 0 01-.924-.112 2.346 2.346 0 01-.742-.336 2.282 2.282 0 01-.546-.574h-.084v3.276h-1.708zm3.374-3.724c.42 0 .751-.08.994-.238.252-.168.43-.42.532-.756.112-.336.168-.76.168-1.274v-.196c0-.523-.056-.952-.168-1.288-.103-.345-.28-.597-.532-.756-.243-.168-.574-.252-.994-.252-.383 0-.7.089-.952.266-.243.177-.425.439-.546.784-.112.336-.168.751-.168 1.246v.168c0 .364.033.69.098.98.065.28.163.518.294.714a1.4 1.4 0 00.518.448c.215.103.467.154.756.154zm8.694 3.85c-.346 0-.626-.028-.84-.084a7.173 7.173 0 01-.364-.084v-1.218h.784c.196 0 .392-.051.588-.154A1.89 1.89 0 0075.529 23l-2.87-7.364h1.792l1.372 3.528c.065.159.13.36.196.602.075.243.15.495.224.756.075.252.135.48.182.686h.07l.126-.476c.047-.177.093-.36.14-.546.056-.187.112-.369.168-.546.056-.177.102-.331.14-.462l1.12-3.542h1.736l-2.464 6.986a10.1 10.1 0 01-.476 1.12 4.144 4.144 0 01-.602.938c-.224.27-.495.48-.812.63-.308.159-.672.238-1.092.238zm9.706-2.38c-.803 0-1.475-.135-2.016-.406a2.692 2.692 0 01-1.218-1.274c-.27-.57-.406-1.293-.406-2.17 0-.887.135-1.61.406-2.17.27-.57.677-.99 1.218-1.26.541-.28 1.213-.42 2.016-.42.812 0 1.484.14 2.016.42.541.27.947.69 1.218 1.26.27.56.406 1.283.406 2.17 0 .877-.135 1.6-.406 2.17-.27.57-.677.994-1.218 1.274-.532.27-1.204.406-2.016.406zm0-1.4c.448 0 .807-.084 1.078-.252.28-.177.48-.439.602-.784.13-.355.196-.793.196-1.316v-.196c0-.523-.065-.957-.196-1.302-.121-.355-.322-.616-.602-.784-.27-.177-.63-.266-1.078-.266-.448 0-.812.089-1.092.266-.27.168-.471.43-.602.784-.121.345-.182.78-.182 1.302v.196c0 .523.06.961.182 1.316.13.345.331.607.602.784.28.168.644.252 1.092.252zm7.43 1.4c-.71 0-1.289-.191-1.737-.574-.439-.392-.658-1.055-.658-1.988v-4.97h1.708v4.662c0 .261.028.48.084.658.066.168.154.308.266.42.121.103.266.177.434.224.168.047.355.07.56.07.308 0 .584-.075.826-.224.252-.15.448-.355.588-.616.15-.27.224-.574.224-.91v-4.284h1.708V23h-1.414l-.14-.98h-.098a3.065 3.065 0 01-.602.602 2.572 2.572 0 01-.784.392c-.29.103-.611.154-.966.154zM97.437 23v-7.364h1.428l.14 1.162h.098a3.51 3.51 0 01.336-.644c.14-.205.318-.369.532-.49a1.48 1.48 0 01.784-.196c.15 0 .285.014.406.042.131.028.229.056.294.084v1.61h-.518c-.289 0-.546.042-.77.126a1.376 1.376 0 00-.574.364 1.63 1.63 0 00-.336.63 3.119 3.119 0 00-.112.882V23h-1.708zm7.602 0v-7.364h1.428l.14.98h.098c.159-.224.341-.42.546-.588.205-.177.439-.313.7-.406.271-.103.565-.154.882-.154.429 0 .812.089 1.148.266.336.177.597.471.784.882h.098a2.79 2.79 0 01.56-.588c.215-.177.462-.313.742-.406.28-.103.583-.154.91-.154.439 0 .826.08 1.162.238.336.159.602.42.798.784.196.364.294.85.294 1.456V23h-1.708v-4.704c0-.252-.028-.462-.084-.63a.9.9 0 00-.238-.406.804.804 0 00-.364-.224 1.453 1.453 0 00-.462-.07c-.271 0-.513.075-.728.224-.215.15-.387.355-.518.616a2.145 2.145 0 00-.182.91V23h-1.708v-4.704c0-.252-.028-.462-.084-.63a.9.9 0 00-.238-.406.804.804 0 00-.364-.224 1.453 1.453 0 00-.462-.07c-.271 0-.518.075-.742.224-.215.15-.387.355-.518.616a2.145 2.145 0 00-.182.91V23h-1.708zm15.222.168c-.784 0-1.437-.135-1.96-.406a2.66 2.66 0 01-1.176-1.274c-.261-.57-.392-1.293-.392-2.17 0-.887.131-1.61.392-2.17.262-.57.654-.99 1.176-1.26.523-.28 1.176-.42 1.96-.42.71 0 1.302.135 1.778.406.486.261.85.667 1.092 1.218.243.55.364 1.265.364 2.142v.504h-5.012c.019.457.089.845.21 1.162.122.308.308.541.56.7.262.15.602.224 1.022.224.215 0 .416-.028.602-.084.187-.056.35-.14.49-.252.14-.121.248-.27.322-.448.084-.177.126-.383.126-.616h1.68c0 .467-.084.873-.252 1.218-.158.345-.387.63-.686.854a2.99 2.99 0 01-1.022.504 4.618 4.618 0 01-1.274.168zm-1.75-4.634h3.206c0-.308-.037-.57-.112-.784a1.327 1.327 0 00-.294-.532.962.962 0 00-.448-.294 1.732 1.732 0 00-.602-.098c-.364 0-.672.06-.924.182a1.255 1.255 0 00-.56.56c-.13.252-.219.574-.266.966zM124.946 23v-7.364h1.428l.14 1.162h.098c.093-.233.205-.448.336-.644a1.57 1.57 0 01.532-.49c.215-.13.476-.196.784-.196.149 0 .285.014.406.042.131.028.229.056.294.084v1.61h-.518c-.289 0-.546.042-.77.126a1.377 1.377 0 00-.574.364 1.638 1.638 0 00-.336.63 3.104 3.104 0 00-.112.882V23h-1.708zm8.002.168c-.766 0-1.405-.135-1.918-.406-.504-.28-.882-.705-1.134-1.274-.252-.57-.378-1.293-.378-2.17 0-.887.126-1.61.378-2.17.261-.57.644-.99 1.148-1.26.513-.28 1.148-.42 1.904-.42.494 0 .933.06 1.316.182.382.121.709.308.98.56.28.243.49.546.63.91s.21.789.21 1.274h-1.736c0-.345-.052-.63-.154-.854a1.046 1.046 0 00-.476-.504c-.206-.121-.472-.182-.798-.182-.383 0-.696.089-.938.266-.243.177-.425.443-.546.798-.112.345-.168.784-.168 1.316v.182c0 .523.056.961.168 1.316.121.355.308.62.56.798.252.168.583.252.994.252.317 0 .578-.056.784-.168.214-.121.378-.299.49-.532.112-.233.168-.513.168-.84h1.652c0 .457-.07.868-.21 1.232-.14.364-.346.672-.616.924a2.682 2.682 0 01-.994.574c-.383.13-.822.196-1.316.196zm4.59-.168V12.878h1.708v3.598h.098a2.631 2.631 0 011.288-.868c.28-.093.588-.14.924-.14.467 0 .877.084 1.232.252.364.168.649.439.854.812.205.373.308.873.308 1.498V23h-1.722v-4.662c0-.261-.033-.476-.098-.644a.885.885 0 00-.266-.42.935.935 0 00-.42-.238 2.09 2.09 0 00-.56-.07c-.308 0-.588.075-.84.224a1.69 1.69 0 00-.588.616c-.14.261-.21.565-.21.91V23h-1.708zm10.978 0v-7.364h1.428l.14.98h.098c.168-.224.364-.42.588-.588a2.62 2.62 0 01.784-.406 3 3 0 01.98-.154c.467 0 .878.084 1.232.252.364.168.649.439.854.812.206.373.308.873.308 1.498V23h-1.722v-4.662c0-.261-.032-.476-.098-.644a.878.878 0 00-.266-.42.935.935 0 00-.42-.238 2.085 2.085 0 00-.56-.07c-.308 0-.588.075-.84.224-.242.15-.438.355-.588.616-.14.261-.21.565-.21.91V23h-1.708zm11.452.168c-.802 0-1.474-.135-2.016-.406a2.695 2.695 0 01-1.218-1.274c-.27-.57-.406-1.293-.406-2.17 0-.887.136-1.61.406-2.17.271-.57.677-.99 1.218-1.26.542-.28 1.214-.42 2.016-.42.812 0 1.484.14 2.016.42.542.27.948.69 1.218 1.26.271.56.406 1.283.406 2.17 0 .877-.135 1.6-.406 2.17-.27.57-.676.994-1.218 1.274-.532.27-1.204.406-2.016.406zm0-1.4c.448 0 .808-.084 1.078-.252.28-.177.481-.439.602-.784.131-.355.196-.793.196-1.316v-.196c0-.523-.065-.957-.196-1.302-.121-.355-.322-.616-.602-.784-.27-.177-.63-.266-1.078-.266-.448 0-.812.089-1.092.266-.27.168-.471.43-.602.784-.121.345-.182.78-.182 1.302v.196c0 .523.061.961.182 1.316.131.345.332.607.602.784.28.168.644.252 1.092.252zM166.389 23l-2.198-7.364h1.764l1.022 4.004c.056.205.103.41.14.616l.098.504c.028.14.047.224.056.252h.084a31.61 31.61 0 00.21-1.078c.038-.168.061-.28.07-.336l.952-3.962h1.834l.994 3.976c.038.13.07.285.098.462l.112.504c.038.168.066.313.084.434h.084l.07-.406a27.633 27.633 0 00.21-.952l1.008-4.018h1.638L172.535 23h-1.806l-.84-3.514a16.004 16.004 0 00-.14-.602l-.14-.672c-.037-.224-.07-.415-.098-.574h-.084c0 .065-.014.182-.042.35-.028.168-.07.378-.126.63-.046.252-.112.541-.196.868L168.195 23h-1.806z" fill="#fff"/></svg>